<?xml version="1.0" standalone="no"?>
<!DOCTYPE svg PUBLIC "-//W3C//DTD SVG 20010904//EN"
 "http://www.w3.org/TR/2001/REC-SVG-20010904/DTD/svg10.dtd">
<svg version="1.0" xmlns="http://www.w3.org/2000/svg"
 width="1024.000000pt" height="706.000000pt" viewBox="0 0 1024.000000 706.000000"
 preserveAspectRatio="xMidYMid meet">

<g transform="translate(0.000000,706.000000) scale(0.100000,-0.100000)"
fill="#000000" stroke="none">
<path d="M0 3530 l0 -3530 5120 0 5120 0 0 3530 0 3530 -5120 0 -5120 0 0
-3530z m2788 2749 c3 -25 -2 -37 -20 -51 -48 -37 -108 -11 -108 48 0 28 6 38
32 54 32 19 33 19 63 0 21 -14 31 -28 33 -51z m98 19 c4 -6 3 -13 -3 -15 -6
-2 -9 -13 -6 -23 3 -11 0 -20 -6 -20 -6 0 -11 16 -11 35 0 35 12 46 26 23z
m44 -7 c0 -36 -11 -53 -26 -40 -16 13 -19 33 -4 24 6 -3 10 3 10 14 0 12 5 21
10 21 6 0 10 -9 10 -19z m228 -6 c17 -37 15 -40 -18 -41 -17 -1 -30 0 -30 1 0
12 24 65 29 65 4 0 13 -11 19 -25z m42 -10 c0 -19 -4 -35 -10 -35 -5 0 -10 16
-10 35 0 19 5 35 10 35 6 0 10 -16 10 -35z m4335 25 c4 -6 -13 -10 -44 -10
-28 0 -51 5 -51 10 0 6 20 10 44 10 25 0 48 -4 51 -10z m-735 -10 c8 13 10 13
10 -1 0 -9 7 -20 16 -23 22 -8 33 2 15 14 -10 5 -6 8 12 7 25 -2 26 -3 9 -20
-17 -16 -21 -16 -55 -2 -20 8 -37 21 -37 28 0 8 4 7 10 -3 9 -13 11 -13 20 0z
m170 6 c0 -11 -19 -15 -25 -6 -3 5 1 10 9 10 9 0 16 -2 16 -4z m160 -28 c0 -5
-6 -8 -14 -8 -9 0 -12 7 -9 21 4 16 8 17 14 7 5 -7 9 -16 9 -20z m-4152 -5 c4
-24 -26 -40 -34 -18 -8 21 3 47 19 43 6 -3 13 -14 15 -25z m23 -46 c-8 -8 -11
-1 -11 24 0 46 14 60 18 19 2 -18 -1 -37 -7 -43z m96 43 c1 -15 0 -18 -3 -7
-7 21 -24 23 -24 2 0 -8 -4 -15 -10 -15 -5 0 -10 7 -10 15 0 21 -18 19 -23 -2
-3 -11 -5 -7 -6 10 -1 26 1 27 37 24 31 -2 37 -6 39 -27z m3815 12 c-7 -2 -9
-9 -6 -15 5 -9 4 -9 -6 0 -15 13 -4 37 13 26 8 -5 8 -8 -1 -11z m80 0 c-7 -2
-9 -9 -6 -15 5 -9 4 -9 -6 0 -15 13 -4 37 13 26 8 -5 8 -8 -1 -11z m51 0 c-4
-10 -8 -11 -13 -2 -6 9 -9 9 -13 -1 -4 -10 -6 -9 -6 3 -1 11 6 16 18 15 12 -1
17 -6 14 -15z m41 -4 c-4 -34 -4 -34 -15 -15 -5 9 -7 22 -4 27 11 18 22 11 19
-12z m96 10 c0 -6 6 -5 14 2 12 9 15 8 13 -9 -1 -19 -3 -19 -22 -7 -16 11 -24
11 -31 2 -5 -6 -8 -9 -7 -7 2 2 -2 10 -7 16 -8 9 -4 13 15 13 14 0 25 -5 25
-10z m60 -10 c0 -18 -2 -20 -9 -8 -6 8 -7 18 -5 22 9 14 14 9 14 -14z m278
-15 c-15 -2 -42 -2 -60 0 -18 2 -6 4 27 4 33 0 48 -2 33 -4z m-988 -677 c41 0
116 4 165 8 158 15 375 -36 545 -128 111 -60 278 -186 359 -272 74 -78 81 -89
81 -125 l0 -41 -77 71 c-45 42 -108 87 -155 111 -43 23 -78 39 -78 37 0 -3 29
-24 65 -47 67 -44 145 -122 171 -171 l14 -27 -51 34 c-28 19 -55 31 -61 28
-10 -6 -25 -1 -109 42 -25 13 -49 21 -53 17 -3 -3 -6 -2 -6 4 0 6 -22 21 -49
34 -27 13 -48 26 -45 30 2 4 -1 11 -7 15 -8 4 -9 3 -5 -4 12 -20 -3 -14 -93
34 -111 60 -126 70 -109 77 7 2 2 4 -12 4 -14 0 -53 12 -87 27 -51 22 -80 27
-163 29 -109 3 -121 -3 -101 -55 13 -35 196 -168 232 -168 8 0 30 -10 49 -23
37 -24 116 -57 139 -57 19 0 62 -36 53 -45 -4 -5 -1 -5 7 0 7 4 16 3 20 -2 3
-5 24 -20 46 -33 86 -51 144 -116 184 -204 27 -58 44 -158 36 -206 -4 -26 -3
-31 4 -20 19 27 12 -29 -15 -130 -14 -52 -30 -117 -36 -145 -5 -27 -23 -84
-39 -125 -27 -71 -26 -73 11 -20 36 53 38 52 16 -7 -26 -67 -169 -291 -191
-299 -8 -3 -28 -28 -45 -54 -48 -75 -66 -81 -26 -9 63 116 80 186 79 335 -2
119 -14 228 -30 271 -4 11 -2 14 5 9 15 -9 15 -1 0 25 -10 17 -10 23 0 26 6 3
12 12 12 21 1 38 35 -46 42 -103 4 -34 5 -1 2 78 -3 82 -1 137 5 137 5 0 21
-33 34 -72 l25 -73 1 51 c2 85 -46 213 -104 283 -30 35 -52 42 -35 12 5 -11
10 -31 10 -44 0 -14 7 -41 16 -62 8 -21 14 -57 12 -83 l-3 -46 -60 83 c-33 46
-66 90 -73 97 -30 32 -48 8 -32 -42 21 -62 -3 -60 -54 6 -26 33 -49 60 -51 60
-3 0 25 -45 61 -99 94 -144 161 -307 178 -431 3 -25 -6 -2 -20 50 -36 136
-116 290 -250 480 -179 253 -264 395 -264 440 0 12 -5 30 -10 41 -6 11 -12 40
-14 65 -2 33 -9 52 -30 72 l-27 27 6 -30 6 -30 -26 30 c-83 93 -131 137 -171
155 -65 30 -121 35 -184 16 -74 -22 -52 -5 50 38 81 35 89 36 160 29 41 -3
109 -7 150 -7z m-242 -102 c-4 -3 -28 -12 -55 -19 l-48 -14 53 6 c29 3 79 0
112 -7 49 -10 68 -21 100 -54 l41 -41 -73 -8 c-172 -20 -404 -93 -503 -159
-65 -43 -166 -145 -211 -212 -20 -31 -38 -56 -40 -56 -13 0 33 77 84 142 35
44 61 82 59 84 -5 6 -138 -143 -202 -226 -23 -31 -59 -85 -80 -120 -20 -36
-34 -56 -30 -45 15 47 95 173 163 258 41 51 96 124 122 162 49 71 130 155 207
214 44 34 152 86 193 94 38 7 114 8 108 1z m-1043 -379 l0 -119 -58 -3 c-51
-2 -62 1 -83 22 -54 55 -11 154 62 142 l34 -6 0 45 c0 41 2 45 23 42 21 -3 22
-6 22 -123z m1242 100 c8 -9 33 -25 55 -36 22 -11 38 -26 35 -33 -3 -7 8 -18
25 -25 16 -7 39 -30 52 -50 12 -20 33 -54 46 -75 l24 -39 -85 6 c-242 19 -272
20 -266 10 4 -6 -14 -13 -45 -16 -51 -6 -135 -33 -152 -49 -6 -4 -17 -8 -26
-8 -10 0 -27 -9 -40 -20 -12 -11 -26 -17 -30 -15 -5 3 -22 -11 -39 -30 -33
-39 -47 -45 -32 -16 9 16 8 18 -9 14 -10 -3 -38 -36 -61 -74 -23 -38 -44 -68
-46 -65 -5 4 16 45 41 81 8 12 11 28 7 39 -6 16 -12 12 -37 -28 -16 -25 -33
-46 -38 -46 -4 0 -6 -6 -3 -14 3 -8 -3 -23 -13 -34 -10 -11 -16 -23 -13 -26 9
-9 -100 -7 -115 2 -10 7 -9 27 3 102 30 170 64 257 131 331 38 42 61 56 110
65 22 3 46 10 54 14 8 5 29 11 45 14 212 43 234 45 318 41 61 -3 93 -10 104
-20z m-3701 -31 l27 -46 28 46 c22 35 35 46 54 46 23 0 25 -2 14 -22 -7 -13
-25 -41 -40 -64 -20 -30 -29 -56 -31 -95 -3 -47 -6 -54 -25 -57 -21 -3 -23 0
-23 49 0 43 -7 62 -40 115 -22 35 -40 66 -40 69 0 3 11 5 25 5 18 0 31 -11 51
-46z m842 -56 c23 -57 44 -111 48 -120 11 -30 -40 -23 -54 7 -10 21 -18 25
-55 25 -37 0 -46 -4 -55 -25 -11 -24 -52 -36 -52 -15 0 9 77 206 86 222 3 5
13 8 23 8 13 0 28 -27 59 -102z m127 -18 c0 -112 -1 -115 -22 -118 -23 -3 -23
-2 -23 118 0 120 0 121 23 118 21 -3 22 -6 22 -118z m350 95 c50 -49 20 -114
-56 -124 -44 -6 -44 -6 -47 -49 -3 -38 -6 -43 -25 -40 -21 3 -22 8 -25 121
l-3 117 66 0 c57 0 69 -3 90 -25z m-1071 -70 c56 -52 19 -145 -59 -145 -78 0
-115 93 -59 145 17 16 39 25 59 25 20 0 42 -9 59 -25z m94 -38 c3 -62 19 -80
48 -56 11 9 15 27 13 63 -3 46 -1 51 19 54 21 3 22 0 22 -62 0 -76 -20 -106
-69 -106 -47 0 -73 29 -79 88 -5 61 2 85 25 80 14 -2 19 -15 21 -61z m253 53
c18 -12 -8 -43 -29 -35 -27 10 -42 -15 -42 -72 0 -51 -2 -54 -22 -51 -21 3
-23 9 -26 72 -2 38 -1 75 2 81 5 14 96 18 117 5z m896 -5 c47 -33 44 -118 -6
-144 -57 -31 -131 11 -131 74 0 63 85 107 137 70z m104 -34 c17 -47 20 -46 38
12 15 44 37 48 51 10 6 -16 14 -37 19 -48 l9 -20 7 20 c23 65 29 75 46 75 24
0 23 -11 -10 -95 -32 -83 -53 -94 -71 -38 -19 58 -22 59 -39 12 -26 -70 -44
-63 -80 31 -17 45 -31 84 -31 87 0 2 10 3 22 1 16 -2 27 -15 39 -47z m333 27
c14 -13 28 -35 32 -50 l6 -28 -62 0 c-45 0 -61 -3 -57 -12 2 -8 21 -13 45 -13
49 0 64 -12 38 -31 -32 -23 -80 -17 -110 12 -74 75 29 192 108 122z m172 11
c8 -13 -14 -39 -29 -34 -24 9 -36 -12 -39 -65 -3 -48 -6 -55 -25 -58 -22 -3
-23 -1 -23 76 0 43 2 81 5 84 9 9 105 7 111 -3z m149 -14 c14 -13 25 -36 25
-50 0 -24 -3 -25 -56 -25 -40 0 -54 -3 -51 -12 2 -7 19 -13 38 -13 19 0 40 -4
48 -9 20 -13 -13 -36 -52 -36 -40 0 -67 17 -82 53 -35 84 67 156 130 92z
m-1125 -55 c0 -18 -7 -20 -55 -20 -48 0 -55 2 -55 20 0 18 7 20 55 20 48 0 55
-2 55 -20z m2853 -179 c9 -16 17 -31 17 -33 0 -3 -21 -1 -47 3 -27 4 -77 8
-113 9 -46 0 -61 3 -50 10 13 9 13 10 -1 10 -8 0 -24 7 -35 15 -17 13 -7 14
96 15 l116 0 17 -29z m-1137 -53 c-18 -40 -38 -84 -45 -98 l-11 -25 6 25 c7
31 71 170 78 170 3 0 -10 -33 -28 -72z m-1641 -133 c25 -60 45 -113 45 -117 0
-5 -11 -8 -24 -8 -16 0 -27 7 -31 20 -5 16 -15 20 -55 20 -40 0 -50 -4 -55
-20 -4 -13 -15 -20 -31 -20 -13 0 -24 3 -24 7 0 3 21 58 47 120 60 148 68 148
128 -2z m413 87 c3 -16 -2 -22 -17 -22 -26 0 -36 17 -20 36 16 19 33 13 37
-14z m262 -17 c0 -23 5 -35 14 -35 23 0 29 -31 6 -37 -17 -5 -20 -14 -20 -64
0 -56 -1 -59 -25 -59 -24 0 -25 3 -25 60 0 53 -2 60 -20 60 -13 0 -20 7 -20
20 0 13 7 20 20 20 16 0 20 7 20 35 0 31 3 35 25 35 22 0 25 -4 25 -35z m501
13 c1 -13 1 -27 0 -31 -1 -5 8 -11 19 -14 27 -7 27 -43 0 -43 -18 0 -20 -7
-20 -60 0 -53 -2 -60 -20 -60 -18 0 -20 7 -20 60 0 53 -2 60 -20 60 -13 0 -20
7 -20 20 0 13 7 20 20 20 16 0 20 7 20 35 0 28 4 35 20 35 14 0 20 -7 21 -22z
m2408 -128 c1 -75 -13 -151 -44 -245 -26 -79 -105 -259 -126 -286 -10 -13 4
27 31 88 65 146 97 268 112 426 13 136 26 144 27 17z m-3401 67 c21 -16 -5
-39 -30 -26 -13 7 -24 7 -30 1 -6 -6 4 -16 29 -28 41 -20 54 -53 33 -80 -16
-19 -94 -19 -110 1 -18 22 -3 34 35 28 45 -7 45 9 1 25 -39 14 -53 41 -37 71
17 30 76 35 109 8z m150 1 c21 -18 -5 -40 -30 -27 -14 8 -23 8 -31 0 -8 -8 -2
-14 21 -22 30 -10 52 -35 52 -58 0 -35 -77 -54 -121 -30 -32 17 -6 39 37 32
38 -6 48 11 12 20 -43 11 -62 32 -54 61 11 43 75 56 114 24z m230 0 c21 -18
-5 -40 -30 -27 -13 7 -24 7 -30 1 -6 -6 4 -16 29 -28 42 -21 54 -52 28 -78
-21 -20 -88 -21 -105 -1 -18 22 -3 34 35 28 45 -7 45 9 1 25 -36 13 -50 34
-41 62 11 36 78 47 113 18z m295 10 l27 2 0 -78 0 -79 -64 -1 c-71 -1 -92 12
-101 64 -10 54 43 112 90 97 11 -4 32 -6 48 -5z m-443 -78 c0 -73 -2 -80 -20
-80 -18 0 -20 7 -20 80 0 73 2 80 20 80 18 0 20 -7 20 -80z m650 60 c5 -10 10
-46 10 -79 0 -54 -2 -61 -20 -61 -18 0 -20 7 -20 55 0 42 -4 57 -16 62 -31 12
-49 -11 -52 -66 -3 -43 -6 -51 -23 -51 -17 0 -19 7 -19 79 l0 78 65 1 c54 1
66 -2 75 -18z m517 -32 c-3 -8 -6 -5 -6 6 -1 11 2 17 5 13 3 -3 4 -12 1 -19z
m-10 -50 c-3 -8 -6 -5 -6 6 -1 11 2 17 5 13 3 -3 4 -12 1 -19z m2048 -61 c-7
-32 -16 -89 -20 -125 -9 -103 -16 -137 -24 -124 -4 7 -17 -18 -30 -59 -12 -39
-25 -68 -28 -65 -3 3 2 25 10 50 21 60 8 59 -21 -2 -27 -58 -21 -39 35 107 24
63 52 154 61 202 9 49 20 85 24 81 4 -4 1 -33 -7 -65z m-2058 11 c-3 -8 -6 -5
-6 6 -1 11 2 17 5 13 3 -3 4 -12 1 -19z m489 -37 c18 -11 17 -11 -3 -6 -12 3
-51 10 -85 15 l-63 9 66 -3 c37 -2 75 -9 85 -15z m1068 -67 c10 -25 -1 -29
-14 -5 -6 12 -7 21 -1 21 5 0 12 -7 15 -16z m-4362 -86 c-6 -6 -7 0 -4 19 5
21 7 23 10 9 2 -10 0 -22 -6 -28z m103 18 c24 2 33 -1 29 -10 -3 -7 -11 -13
-19 -13 -8 0 -12 4 -9 9 8 12 -13 10 -35 -4 -15 -9 -22 -8 -37 7 -19 18 -18
18 4 13 16 -5 22 -2 23 10 1 15 2 15 6 1 3 -11 14 -15 38 -13z m75 -13 c0 -7
-4 -13 -10 -13 -5 0 -10 12 -10 28 0 21 2 24 10 12 5 -8 10 -21 10 -27z m864
23 c-6 -17 12 -31 21 -16 10 16 25 12 19 -5 -4 -8 -12 -15 -19 -15 -16 0 -47
35 -38 43 11 12 23 7 17 -7z m1753 -48 c-2 -13 -4 -3 -4 22 0 25 2 35 4 23 2
-13 2 -33 0 -45z m488 52 c3 -5 -1 -10 -10 -10 -9 0 -13 5 -10 10 3 6 8 10 10
10 2 0 7 -4 10 -10z m-2738 -32 c-3 -7 -5 -2 -5 12 0 14 2 19 5 13 2 -7 2 -19
0 -25z m340 0 c-3 -7 -5 -2 -5 12 0 14 2 19 5 13 2 -7 2 -19 0 -25z m816 20
c9 2 17 -2 17 -8 0 -6 -4 -8 -10 -5 -5 3 -10 1 -10 -4 0 -7 -7 -7 -20 1 -11 7
-20 16 -20 21 0 4 6 5 13 0 6 -4 20 -6 30 -5z m-1474 -31 c0 -21 -1 -21 -9 -2
-12 28 -12 37 0 30 6 -3 10 -16 9 -28z m73 18 c5 -6 12 -5 20 3 16 16 29 15
22 -1 -3 -8 -19 -13 -39 -13 -18 0 -31 4 -29 8 3 5 1 8 -5 8 -5 0 -11 -5 -13
-12 -3 -7 -7 -5 -11 6 -6 14 -2 17 21 14 15 -1 30 -7 34 -13z m91 0 c-3 -9 -8
-14 -10 -11 -3 3 -2 9 2 15 9 16 15 13 8 -4z m41 0 c-4 -8 -8 -15 -10 -15 -2
0 -4 7 -4 15 0 8 4 15 10 15 5 0 7 -7 4 -15z m96 -4 c0 -14 -2 -14 -11 -1 -8
12 -12 12 -16 2 -4 -10 -8 -10 -20 -1 -12 10 -16 10 -24 -2 -7 -12 -9 -11 -9
2 0 12 10 16 40 16 30 0 40 -4 40 -16z m68 -6 c-3 -3 -9 2 -12 12 -6 14 -5 15
5 6 7 -7 10 -15 7 -18z m52 14 c0 -5 -4 -7 -10 -4 -5 3 -10 1 -10 -6 0 -7 -3
-10 -6 -6 -8 7 4 27 17 27 5 0 9 -5 9 -11z m108 -9 c3 -13 2 -13 -8 0 -9 11
-13 12 -17 3 -2 -7 -11 -13 -19 -13 -9 0 -12 5 -9 10 3 6 2 10 -4 10 -5 0 -12
-8 -14 -17 -4 -14 -5 -13 -6 4 -1 19 4 22 36 20 22 -2 38 -9 41 -17z m56 5
c-6 -16 -24 -21 -24 -7 0 11 11 22 21 22 5 0 6 -7 3 -15z m54 -6 c3 -11 2 -11
-7 1 -10 13 -12 13 -21 0 -5 -8 -10 -10 -10 -4 0 27 31 30 38 3z m92 4 c0 -15
-2 -16 -10 -3 -6 9 -13 11 -17 5 -11 -13 -33 -17 -33 -6 0 9 20 17 48 20 6 0
12 -7 12 -16z m180 0 c0 -14 -2 -15 -9 -4 -5 8 -14 10 -21 6 -9 -5 -11 -4 -6
3 11 18 36 14 36 -5z m65 7 c4 -7 12 -7 25 0 25 14 30 13 24 -5 -7 -18 -50
-20 -57 -2 -4 9 -8 8 -16 -3 -8 -11 -11 -12 -11 -2 0 7 -4 10 -10 7 -5 -3 -10
-1 -10 4 0 14 47 14 55 1z m89 -5 c3 -8 1 -15 -3 -15 -5 0 -11 7 -15 15 -3 8
-1 15 3 15 5 0 11 -7 15 -15z m89 -5 c-3 -12 -8 -19 -11 -16 -5 6 5 36 12 36
2 0 2 -9 -1 -20z m65 -2 c-2 -12 -10 -24 -18 -26 -13 -5 -13 -3 -1 12 8 9 11
20 7 23 -4 4 -11 1 -16 -7 -6 -8 -10 -10 -10 -4 0 15 11 24 27 24 9 0 13 -8
11 -22z m42 11 c0 -5 -4 -8 -9 -5 -5 4 -12 0 -14 -6 -3 -8 -6 -6 -6 5 -1 9 6
17 14 17 8 0 15 -5 15 -11z m103 -6 c-4 -11 -8 -11 -21 -1 -12 10 -16 10 -19
1 -6 -17 -21 -16 -38 1 -11 11 -6 13 35 13 36 -1 47 -4 43 -14z m57 0 c0 -15
-2 -16 -10 -3 -9 13 -11 13 -20 0 -5 -8 -10 -10 -10 -4 0 14 10 24 27 24 7 0
13 -8 13 -17z m128 3 c-7 -8 -15 -12 -17 -11 -5 6 10 25 20 25 5 0 4 -6 -3
-14z m29 -8 c-3 -8 -6 -5 -6 6 -1 11 2 17 5 13 3 -3 4 -12 1 -19z m57 7 c3 -8
3 -15 0 -15 -3 0 -12 7 -20 15 -13 13 -13 15 -1 15 8 0 17 -7 21 -15z m136 6
c0 -4 -20 -7 -45 -6 -26 2 -45 -2 -45 -8 0 -6 -3 -8 -6 -4 -13 13 7 23 50 25
25 1 46 -2 46 -7z m41 -14 c-10 -9 -11 -8 -5 6 3 10 9 15 12 12 3 -3 0 -11 -7
-18z m41 16 c-6 -2 -10 -9 -6 -14 3 -5 0 -9 -5 -9 -12 0 -14 13 -4 23 3 4 11
7 17 6 6 0 5 -3 -2 -6z m-2102 -13 c0 -5 -2 -10 -4 -10 -3 0 -8 5 -11 10 -3 6
-1 10 4 10 6 0 11 -4 11 -10z m110 -85 c0 -17 -5 -25 -17 -25 -16 0 -16 2 -3
11 12 9 13 12 1 16 -11 5 -11 7 0 14 19 12 19 12 19 -16z m160 18 c0 -5 -5
-15 -10 -23 -8 -12 -10 -11 -10 8 0 12 5 22 10 22 6 0 10 -3 10 -7z m105 -3
c3 -5 1 -10 -4 -10 -6 0 -11 5 -11 10 0 6 2 10 4 10 3 0 8 -4 11 -10z m250
-10 c10 8 15 8 21 -1 5 -8 3 -9 -6 -4 -9 6 -12 4 -8 -6 4 -10 -3 -14 -22 -14
-38 0 -49 14 -25 31 18 13 20 13 23 -1 3 -12 7 -13 17 -5z m310 11 c3 -5 1
-12 -5 -16 -5 -3 -10 1 -10 9 0 18 6 21 15 7z m45 -10 c0 -4 -7 -8 -15 -8 -8
0 -15 6 -15 13 0 8 6 11 15 8 8 -4 15 -9 15 -13z m140 3 c0 -7 -8 -10 -20 -7
-22 6 -19 20 5 20 8 0 15 -6 15 -13z m380 -19 c0 -5 -5 -3 -10 5 -6 10 -10 11
-10 3 0 -7 -5 -13 -10 -13 -7 0 -7 7 1 21 9 17 13 19 20 8 5 -8 9 -18 9 -24z
m65 25 c3 -5 1 -10 -4 -10 -6 0 -11 5 -11 10 0 6 2 10 4 10 3 0 8 -4 11 -10z
m-1545 -20 c0 -11 -6 -20 -14 -20 -18 0 -29 16 -21 30 11 18 35 11 35 -10z
m212 -2 c-4 -15 -6 -15 -19 -3 -18 19 -27 19 -20 1 4 -10 1 -13 -8 -10 -7 3
-23 1 -34 -6 -18 -9 -21 -8 -21 8 0 26 3 28 58 28 42 0 48 -3 44 -18z m104 1
c0 -15 -2 -15 -25 0 -24 15 -25 15 -17 -4 5 -15 4 -17 -5 -8 -16 16 -6 28 23
28 15 0 24 -6 24 -16z m147 3 c15 -17 15 -18 -7 -17 -29 0 -41 10 -31 24 9 16
20 14 38 -7z m50 3 c-3 -9 -8 -14 -10 -11 -3 3 -2 9 2 15 9 16 15 13 8 -4z
m200 8 c-7 -2 -13 -9 -13 -14 0 -6 5 -7 10 -4 6 3 10 -1 10 -9 0 -8 -5 -18
-12 -22 -7 -4 -8 -3 -4 4 4 6 -4 16 -16 23 -22 12 -22 12 -3 20 11 4 25 8 30
8 6 -1 4 -3 -2 -6z m47 3 c0 -2 -7 -7 -16 -10 -8 -3 -12 -2 -9 4 6 10 25 14
25 6z m40 -28 c0 -19 -16 -5 -17 14 -2 18 0 20 7 8 5 -8 10 -18 10 -22z m50
19 c11 3 20 1 20 -5 0 -5 -9 -12 -20 -15 -11 -3 -20 -4 -20 -2 0 2 -2 9 -3 17
-2 7 -2 10 0 7 2 -4 13 -5 23 -2z m150 3 c-13 -9 -13 -11 0 -20 9 -6 10 -10 3
-10 -15 0 -26 17 -18 30 3 6 12 10 18 10 7 0 6 -4 -3 -10z m44 -23 c7 -6 6 -7
-4 -4 -8 2 -16 12 -17 23 -2 13 -1 15 4 4 3 -8 11 -19 17 -23z m164 5 c-2 -14
-9 -28 -17 -30 -8 -3 -11 0 -8 5 8 13 -31 45 -45 37 -6 -4 -8 -3 -5 2 3 6 22
10 42 11 33 1 36 -1 33 -25z m208 15 c5 -4 0 -5 -11 -1 -18 7 -19 6 -5 -11 13
-16 13 -18 0 -13 -8 3 -24 -2 -35 -11 -11 -9 -17 -12 -12 -7 9 11 -21 46 -40
46 -20 0 -16 -20 5 -21 11 0 12 -2 4 -6 -7 -3 -23 3 -34 13 -20 17 -21 18 -15
2 4 -10 2 -18 -3 -18 -12 0 -22 18 -16 28 6 11 152 10 162 -1z m184 -7 c13
-11 19 -20 15 -20 -5 0 -17 8 -28 18 -19 16 -20 16 -14 0 4 -10 2 -18 -3 -18
-11 0 -13 23 -3 33 8 9 7 10 33 -13z m66 2 c1 -7 0 -8 -3 -2 -2 5 -9 8 -14 4
-5 -3 -9 0 -9 6 0 15 23 7 26 -8z m192 -11 c-2 -13 -9 -26 -16 -29 -7 -2 -11
2 -10 9 2 10 -14 14 -62 15 -38 1 -66 6 -68 13 -2 6 -8 9 -13 5 -5 -3 -9 -1
-9 3 0 5 41 9 90 9 91 0 91 0 88 -25z m-1460 -12 c-3 -8 -7 -3 -11 10 -4 17
-3 21 5 13 5 -5 8 -16 6 -23z m1495 16 c-3 -9 -8 -14 -10 -11 -3 3 -2 9 2 15
9 16 15 13 8 -4z m2919 -37 c-6 -6 -7 0 -4 19 5 21 7 23 10 9 2 -10 0 -22 -6
-28z m-1992 -111 c0 -68 89 -321 107 -304 7 8 103 -145 108 -174 3 -12 11 -32
20 -46 9 -13 13 -27 11 -32 -3 -5 1 -14 9 -21 9 -7 34 -35 57 -63 l42 -50 -34
18 c-52 27 -136 111 -179 179 -79 125 -143 282 -146 356 -1 19 -5 63 -10 98
-5 44 -4 62 4 62 6 0 11 -11 11 -23z m171 -203 c32 -96 108 -236 155 -285 13
-14 22 -28 19 -30 -2 -3 9 -21 26 -40 l30 -34 -28 39 c-22 32 -24 38 -10 33
12 -4 0 16 -30 55 -57 73 -105 149 -56 89 15 -19 40 -48 56 -65 15 -17 27 -33
27 -37 0 -16 164 -153 168 -141 2 8 11 4 24 -13 11 -14 25 -25 32 -25 6 0 19
-9 29 -20 9 -11 23 -20 31 -20 16 0 68 -51 61 -59 -3 -2 -39 -6 -81 -8 l-77
-4 -52 51 c-28 28 -54 48 -57 45 -3 -3 -17 10 -32 30 -35 46 -23 44 36 -6 36
-30 52 -38 64 -31 14 8 13 12 -10 28 -15 10 -40 29 -56 42 -16 13 -34 21 -39
18 -5 -3 -40 27 -78 67 -119 125 -214 344 -212 486 l1 56 13 -63 c8 -34 28
-105 46 -158z m1446 154 c-2 -13 -4 -3 -4 22 0 25 2 35 4 23 2 -13 2 -33 0
-45z m-952 17 c90 -53 149 -148 210 -341 31 -98 57 -160 85 -202 22 -33 40
-67 40 -75 0 -17 33 -32 75 -36 27 -2 16 -21 -12 -22 -16 0 -22 -3 -15 -6 17
-7 15 -21 -5 -26 -10 -3 3 -5 29 -4 30 0 49 5 52 14 3 7 11 13 17 13 8 0 8 -4
-1 -15 -10 -13 -9 -15 11 -16 21 -1 21 -2 -6 -10 -44 -14 -228 0 -221 17 3 7
-7 17 -25 23 -16 6 -44 21 -62 33 -17 13 -42 28 -55 35 -48 25 -162 138 -162
160 0 41 30 99 60 117 l30 17 45 -48 c25 -26 45 -53 45 -59 0 -6 11 -21 24
-34 14 -12 28 -35 31 -50 7 -30 37 -63 61 -66 9 -1 23 -9 32 -17 22 -18 42
-29 42 -23 0 3 -15 16 -32 28 -18 13 -34 29 -36 36 -3 15 10 16 26 0 16 -16
15 -3 -1 14 -27 28 -77 137 -97 212 -11 44 -33 104 -47 135 -34 71 -157 198
-202 207 -17 4 -31 11 -31 16 0 14 48 1 95 -27z m-438 -7 c-3 -8 -6 -5 -6 6
-1 11 2 17 5 13 3 -3 4 -12 1 -19z m115 -65 c7 -9 6 -15 -6 -19 -23 -9 -23 -7
-17 51 5 45 6 47 9 15 2 -19 8 -41 14 -47z m-2977 17 c4 -6 19 -9 33 -8 19 2
27 -2 27 -12 0 -11 -13 -16 -44 -18 -50 -4 -71 9 -51 33 15 17 26 19 35 5z
m185 -6 c35 -2 70 2 77 8 10 8 13 4 13 -16 0 -24 -4 -26 -39 -26 -22 0 -42 6
-45 13 -5 10 -7 10 -12 0 -3 -8 -25 -13 -53 -13 -44 0 -48 2 -46 23 3 30 3 30
23 21 9 -4 46 -9 82 -10z m424 -15 c-5 -10 -54 2 -54 13 0 5 4 7 9 3 5 -3 12
-1 16 5 4 6 11 5 19 -3 8 -6 12 -15 10 -18z m116 11 c0 -11 -2 -20 -4 -20 -2
0 -6 9 -9 20 -3 11 -1 20 4 20 5 0 9 -9 9 -20z m1780 -135 c12 -55 33 -150 47
-212 14 -61 23 -117 21 -124 -5 -16 -39 56 -67 141 -39 119 -65 323 -44 344 8
8 10 2 43 -149z m-1831 121 c-8 -8 -13 -8 -16 2 -4 10 -8 10 -19 1 -9 -7 -14
-8 -14 -1 0 13 20 20 43 14 14 -4 16 -7 6 -16z m179 15 c6 -1 12 -5 12 -11 0
-14 -27 -12 -33 3 -3 7 -6 4 -6 -7 -1 -15 -4 -16 -15 -7 -8 7 -29 10 -45 8
-17 -3 -31 -1 -31 3 0 5 10 10 23 12 19 3 35 2 95 -1z m62 -2 c0 -5 -9 -9 -20
-9 -11 0 -20 4 -20 8 0 4 9 8 20 9 11 1 20 -2 20 -8z m54 -5 c3 -7 -5 -11 -20
-10 -13 0 -24 6 -24 11 0 15 38 13 44 -1z m1926 -28 c0 -3 -4 -8 -10 -11 -5
-3 -10 -1 -10 4 0 6 5 11 10 11 6 0 10 -2 10 -4z m1325 -110 c-8 -37 -22 -79
-31 -94 -8 -15 -12 -18 -9 -7 10 28 33 114 40 149 3 15 8 26 11 23 3 -2 -2
-35 -11 -71z m119 -33 c-20 -32 -44 -57 -44 -48 0 8 51 75 57 75 3 0 -3 -12
-13 -27z m-1254 -18 c-14 -17 -67 -20 -90 -5 -10 7 -4 8 20 4 23 -4 42 0 55 9
24 18 33 14 15 -8z m-461 -135 c13 -30 40 -82 60 -115 52 -84 57 -95 24 -58
-28 32 -105 176 -118 223 -12 41 10 10 34 -50z m1812 -51 c-44 -123 -109 -272
-124 -281 -17 -11 -65 -10 -71 1 -4 5 -2 11 3 13 5 1 19 21 32 44 13 22 59
102 103 178 43 75 80 135 83 133 2 -2 -10 -42 -26 -88z m-1504 -251 c29 -27
29 -39 1 -35 -14 3 -25 14 -29 30 -9 33 -2 34 28 5z m-660 -395 c2 -6 -1 -14
-6 -18 -6 -3 -11 -21 -11 -40 0 -27 -7 -39 -35 -61 l-36 -27 -33 33 c-25 23
-35 43 -38 74 -3 22 -4 43 -2 46 5 11 158 4 161 -7z m883 2 c48 -25 57 -91 19
-131 -16 -17 -33 -24 -61 -24 -91 0 -119 116 -38 157 33 17 45 16 80 -2z
m-2355 -1 c19 -8 45 -55 45 -82 0 -11 -11 -31 -25 -46 -35 -38 -85 -36 -119 5
-32 38 -33 71 -3 103 22 24 68 33 102 20z m3470 -29 c28 -27 35 -89 11 -98
-18 -7 -56 20 -56 41 0 11 -8 6 -27 -17 -36 -42 -63 -35 -63 16 0 44 37 83 80
83 19 0 40 -9 55 -25z m-2395 -16 c0 -17 3 -18 20 -7 16 10 24 10 40 1 12 -8
21 -9 25 -3 11 17 55 12 55 -7 0 -15 1 -15 13 1 20 27 62 18 62 -13 0 -36 -29
-50 -54 -27 -21 19 -21 19 -21 -3 0 -25 -22 -37 -47 -25 -16 6 -15 8 6 12 l24
4 -24 12 c-19 9 -27 9 -37 -1 -18 -18 -41 -16 -48 2 -6 14 -8 13 -20 -2 -12
-16 -13 -12 -14 35 0 33 4 51 10 47 6 -3 10 -15 10 -26z m440 21 c0 -5 -4 -10
-10 -10 -5 0 -10 5 -10 10 0 6 5 10 10 10 6 0 10 -4 10 -10z m-1410 -35 c0
-30 3 -35 24 -35 15 0 26 7 29 20 6 22 57 29 57 8 0 -9 3 -9 12 0 16 16 55 15
61 0 4 -10 8 -10 15 0 5 8 20 12 33 10 18 -2 24 -9 24 -28 0 -32 -29 -38 -57
-13 -18 15 -21 16 -15 1 8 -22 -15 -51 -38 -47 -23 5 -20 25 3 21 10 -1 6 4
-8 12 -14 8 -29 11 -35 7 -5 -5 -36 -9 -67 -9 l-58 -1 0 44 c0 25 5 45 10 45
6 0 10 -16 10 -35z m290 25 c0 -5 -4 -10 -10 -10 -5 0 -10 5 -10 10 0 6 5 10
10 10 6 0 10 -4 10 -10z m2070 -25 c0 -13 8 -28 17 -34 23 -12 13 -22 -15 -14
-17 4 -22 13 -22 39 0 19 5 34 10 34 6 0 10 -11 10 -25z m285 2 c46 2 55 0 56
-15 1 -16 2 -16 6 1 6 24 23 21 23 -5 0 -20 13 -18 16 3 3 22 7 22 14 -1 8
-24 8 -24 9 -2 1 19 6 22 41 22 22 0 40 -3 41 -7 0 -5 2 -16 4 -25 2 -10 -1
-18 -6 -18 -5 0 -9 7 -9 15 0 8 -4 15 -10 15 -5 0 -10 -7 -10 -15 0 -21 -20
-19 -21 3 -1 15 -2 15 -6 1 -4 -18 -66 -33 -71 -18 -2 5 -12 4 -23 -2 -22 -11
-43 -3 -33 13 4 6 -7 0 -24 -12 -28 -21 -32 -22 -47 -6 -19 19 -27 20 -43 4
-8 -8 -15 -8 -25 1 -12 9 -16 8 -21 -4 -3 -8 -15 -15 -27 -15 -15 0 -19 5 -15
15 6 17 1 19 -23 6 -22 -12 -44 1 -39 25 3 15 13 19 56 21 29 2 52 -2 52 -7 0
-6 8 -5 19 2 15 9 23 9 35 -1 14 -12 16 -10 17 10 1 13 3 17 5 9 4 -11 18 -14
59 -13z m-1235 -16 c0 -17 -4 -33 -10 -36 -6 -4 -10 8 -10 29 0 20 5 36 10 36
6 0 10 -13 10 -29z m70 17 c0 -9 3 -9 12 0 14 14 48 16 48 2 0 -5 -8 -7 -17
-3 -15 5 -14 3 2 -10 18 -14 20 -14 23 4 5 26 20 24 24 -3 2 -13 8 -23 13 -23
6 0 11 10 13 23 5 34 24 26 20 -10 -2 -23 -9 -32 -25 -34 -12 -2 -25 1 -28 6
-4 6 -13 5 -25 -3 -15 -9 -25 -9 -37 -1 -14 8 -25 7 -50 -7 l-33 -19 0 45 c0
43 1 45 30 45 17 0 30 -5 30 -12z m240 -24 c0 -21 -4 -33 -10 -29 -5 3 -10 17
-10 31 0 14 -4 22 -10 19 -5 -3 -10 -17 -10 -31 0 -15 -4 -23 -10 -19 -6 4
-10 14 -8 23 5 31 -17 28 -23 -3 -6 -29 -7 -29 -8 8 l-1 37 45 0 c45 0 45 0
45 -36z m1752 -21 c8 -10 6 -13 -6 -13 -12 0 -16 9 -15 38 1 27 3 30 6 12 3
-14 10 -31 15 -37z m-4404 9 c-4 -22 -46 -28 -54 -8 -4 9 -1 23 6 31 16 19 53
1 48 -23z m93 22 c16 -19 0 -50 -24 -46 -9 1 -18 -5 -20 -15 -3 -10 -5 -2 -6
18 -1 32 13 59 30 59 4 0 12 -7 20 -16z m59 7 c0 -5 -6 -12 -12 -14 -8 -3 -6
-6 5 -6 9 -1 17 -7 17 -15 0 -17 -27 -29 -43 -19 -7 4 -3 9 9 14 17 7 17 8 2
8 -18 1 -24 21 -11 34 10 10 33 8 33 -2z m40 -16 c0 -14 5 -25 10 -25 6 0 10
9 10 19 0 11 5 23 10 26 6 4 10 -6 10 -23 0 -33 -24 -49 -46 -31 -16 13 -19
59 -4 59 6 0 10 -11 10 -25z m148 -14 c2 -21 0 -31 -7 -26 -6 3 -11 15 -11 26
0 10 -4 19 -10 19 -5 0 -10 -12 -10 -26 0 -14 -4 -23 -10 -19 -5 3 -10 15 -10
26 0 10 -4 19 -10 19 -5 0 -10 -12 -10 -26 0 -14 -4 -23 -10 -19 -14 8 -13 38
2 53 6 6 27 10 47 9 33 -2 36 -5 39 -36z m882 9 c0 -16 -4 -30 -10 -30 -5 0
-10 14 -10 30 0 17 5 30 10 30 6 0 10 -13 10 -30z m74 15 c8 -23 -4 -45 -25
-45 -10 0 -19 -7 -19 -15 0 -8 -4 -15 -10 -15 -5 0 -10 20 -10 45 0 43 1 45
29 45 16 0 31 -6 35 -15z m50 1 c-3 -8 -1 -17 5 -21 7 -3 11 2 11 14 0 12 5
21 10 21 6 0 10 -9 10 -20 0 -11 5 -20 10 -20 6 0 10 9 10 20 0 11 5 20 11 20
6 0 9 -12 7 -27 -3 -27 -6 -28 -60 -30 -32 -1 -58 2 -58 7 0 6 5 10 11 10 8 0
9 4 0 13 -13 16 -5 27 20 27 12 0 16 -5 13 -14z m184 -18 c2 -16 -1 -28 -7
-28 -6 0 -11 9 -11 20 0 11 -4 20 -10 20 -5 0 -10 -9 -10 -20 0 -11 -4 -20
-10 -20 -5 0 -10 9 -10 20 0 11 -4 20 -10 20 -5 0 -10 -9 -10 -20 0 -11 -4
-20 -10 -20 -5 0 -10 14 -10 31 0 30 1 30 48 27 43 -3 47 -5 50 -30z m2942 10
c0 -7 4 -7 13 0 10 8 13 6 13 -7 0 -10 -6 -17 -12 -14 -7 2 -15 0 -19 -6 -9
-16 -35 -13 -41 4 -4 8 -1 22 6 30 12 15 40 10 40 -7z m-4552 -24 c-3 -14 -5
-12 -10 9 -3 19 -2 25 4 19 6 -6 8 -18 6 -28z m112 11 c0 -14 -4 -25 -10 -25
-5 0 -10 11 -10 25 0 14 5 25 10 25 6 0 10 -11 10 -25z m-115 -45 c-3 -5 -14
-10 -23 -9 -14 0 -13 2 3 9 27 11 27 11 20 0z m-237 -929 c3 -66 5 -73 29 -84
40 -18 63 17 63 100 0 47 3 64 13 61 8 -3 13 -30 15 -76 3 -65 1 -74 -22 -97
-31 -30 -65 -32 -100 -4 -24 19 -26 26 -26 101 0 59 3 79 13 76 8 -3 13 -30
15 -77z m337 -22 c0 -72 -3 -94 -13 -94 -11 0 -14 22 -13 93 0 50 0 95 1 98 0
3 6 4 13 2 8 -3 12 -32 12 -99z m487 62 c-4 -32 -3 -33 25 -27 47 11 67 -12
68 -75 0 -42 -3 -54 -15 -54 -11 0 -16 14 -20 50 -4 36 -10 51 -22 53 -22 4
-40 -31 -36 -71 2 -23 -1 -32 -12 -32 -12 0 -16 19 -18 98 -2 90 -1 98 15 95
14 -3 17 -11 15 -37z m219 -2 l26 -40 26 40 c15 23 34 41 42 41 21 0 19 -5
-20 -64 -26 -40 -35 -64 -35 -95 0 -57 -24 -50 -28 9 -2 28 -14 59 -33 86 -16
23 -29 47 -29 53 0 24 27 8 51 -30z m-779 -37 c7 -7 12 -36 13 -65 0 -40 -4
-52 -15 -52 -11 0 -16 13 -18 48 -5 84 -62 70 -62 -16 0 -26 -4 -37 -12 -35
-13 5 -24 99 -14 123 6 16 92 13 108 -3z m206 2 c12 -8 22 -26 22 -40 0 -22
-4 -24 -46 -24 -51 0 -59 -24 -8 -26 45 -2 47 -3 34 -19 -20 -24 -66 -18 -89
11 -27 35 -26 59 4 89 28 29 51 31 83 9z m172 -55 l0 -66 -46 -1 c-55 0 -84
23 -84 68 0 45 30 69 84 67 l46 -2 0 -66z m111 60 c28 -14 14 -29 -21 -22 -40
7 -38 -8 3 -27 23 -11 32 -22 32 -40 0 -44 -79 -54 -93 -11 -3 9 5 11 32 6 45
-9 47 6 4 26 -38 16 -46 39 -23 63 19 19 38 20 66 5z m494 -14 c14 -13 25 -33
25 -45 0 -28 -43 -70 -73 -70 -61 0 -89 81 -41 119 35 27 59 26 89 -4z m75
-31 c4 -41 8 -49 25 -49 17 0 21 8 25 50 4 36 9 50 20 50 11 0 15 -12 14 -47
-1 -75 -51 -112 -96 -71 -13 12 -18 30 -18 70 0 70 23 68 30 -3z m201 41 c0
-5 -8 -12 -18 -13 -28 -5 -43 -32 -43 -75 0 -26 -4 -37 -12 -35 -13 5 -24 99
-14 123 5 14 86 15 87 0z m-931 -249 c0 -3 -4 -8 -10 -11 -5 -3 -10 -1 -10 4
0 6 5 11 10 11 6 0 10 -2 10 -4z m27 -28 c-3 -7 -5 -2 -5 12 0 14 2 19 5 13 2
-7 2 -19 0 -25z m78 13 c-3 -6 -11 -11 -16 -11 -5 0 -4 6 3 14 14 16 24 13 13
-3z m257 -23 c-6 -6 -17 -6 -32 2 -12 6 -19 14 -16 18 4 3 12 0 18 -6 16 -16
31 -15 25 2 -3 8 -3 17 1 21 4 4 9 -1 10 -10 2 -9 -1 -22 -6 -27z m40 17 c3
-14 1 -25 -3 -25 -5 0 -9 11 -9 25 0 14 2 25 4 25 2 0 6 -11 8 -25z m36 -6
c-3 -8 -7 -3 -11 10 -4 17 -3 21 5 13 5 -5 8 -16 6 -23z m242 3 c0 -15 -2 -15
-10 -2 -6 10 -10 11 -10 3 0 -7 -5 -13 -10 -13 -6 0 -5 8 2 19 14 22 28 18 28
-7z m482 6 c-7 -7 -12 -8 -12 -2 0 14 12 26 19 19 2 -3 -1 -11 -7 -17z m645 0
c-3 -8 -6 -5 -6 6 -1 11 2 17 5 13 3 -3 4 -12 1 -19z m120 -10 c-3 -7 -5 -2
-5 12 0 14 2 19 5 13 2 -7 2 -19 0 -25z m-937 18 c0 -3 -4 -8 -10 -11 -5 -3
-10 -1 -10 4 0 6 5 11 10 11 6 0 10 -2 10 -4z m460 -16 c0 -10 -31 -22 -38
-15 -3 3 0 5 7 5 7 0 11 7 8 14 -4 10 -1 13 9 9 7 -3 14 -9 14 -13z m140 0 c0
-13 -6 -20 -17 -19 -11 0 -13 3 -5 6 6 2 12 11 12 19 0 8 2 14 5 14 3 0 5 -9
5 -20z m-2132 -15 c-3 -3 -9 2 -12 12 -6 14 -5 15 5 6 7 -7 10 -15 7 -18z
m108 13 c4 -7 3 -8 -5 -4 -6 4 -20 2 -29 -6 -15 -12 -16 -11 -3 5 16 20 27 22
37 5z m34 -3 c7 -9 8 -15 2 -15 -5 0 -12 7 -16 15 -3 8 -4 15 -2 15 2 0 9 -7
16 -15z m40 -2 c0 -10 -4 -14 -8 -8 -4 6 -11 13 -16 18 -5 4 -2 7 7 7 10 0 17
-8 17 -17z m160 6 c0 -5 -4 -7 -10 -4 -5 3 -10 1 -10 -6 0 -7 -3 -10 -6 -6 -8
7 4 27 17 27 5 0 9 -5 9 -11z m130 6 c0 -2 -9 -9 -20 -15 -16 -9 -18 -8 -14 5
5 13 34 22 34 10z m215 -24 c-6 -5 -25 10 -25 20 0 5 6 4 14 -3 8 -7 12 -15
11 -17z m49 21 c3 -5 -1 -9 -9 -9 -8 0 -12 4 -9 9 3 4 7 8 9 8 2 0 6 -4 9 -8z
m40 -8 c5 -14 4 -15 -9 -4 -17 14 -19 20 -6 20 5 0 12 -7 15 -16z m70 0 c3 -8
2 -12 -4 -9 -6 3 -10 10 -10 16 0 14 7 11 14 -7z m160 0 c3 -8 2 -12 -4 -9 -6
3 -10 10 -10 16 0 14 7 11 14 -7z m43 -4 c3 -10 2 -11 -4 -4 -4 6 -15 14 -23
17 -11 5 -9 6 4 4 11 -1 21 -9 23 -17z m69 -6 c-4 -9 -9 -15 -11 -12 -3 3 -3
13 1 22 4 9 9 15 11 12 3 -3 3 -13 -1 -22z m144 5 c0 -5 -4 -9 -8 -9 -5 0 -9
7 -9 15 0 8 4 12 9 9 4 -3 8 -9 8 -15z m28 -4 c-3 -3 -9 2 -12 12 -6 14 -5 15
5 6 7 -7 10 -15 7 -18z m50 0 c-3 -3 -9 2 -12 12 -6 14 -5 15 5 6 7 -7 10 -15
7 -18z m67 -4 c-6 -5 -25 10 -25 20 0 5 6 4 14 -3 8 -7 12 -15 11 -17z m192
17 c2 6 10 12 16 12 6 0 4 -7 -5 -16 -17 -17 -38 -12 -38 9 0 7 4 6 11 -3 8
-11 12 -12 16 -2z m83 -9 c0 -5 -4 -9 -8 -9 -5 0 -9 7 -9 15 0 8 4 12 9 9 4
-3 8 -9 8 -15z m198 -4 c-3 -3 -9 2 -12 12 -6 14 -5 15 5 6 7 -7 10 -15 7 -18z
m46 -5 c-6 -6 -10 -2 -11 12 -2 16 1 18 10 9 7 -7 8 -14 1 -21z m115 27 c-2
-1 -12 -9 -22 -16 -15 -12 -17 -12 -11 3 3 9 13 16 22 16 8 0 13 -1 11 -3z
m115 -13 c3 -8 2 -12 -4 -9 -6 3 -10 10 -10 16 0 14 7 11 14 -7z m61 -3 c-3
-6 -11 -11 -16 -11 -5 0 -4 6 3 14 14 16 24 13 13 -3z m35 -2 c0 -5 -4 -9 -8
-9 -5 0 -9 7 -9 15 0 8 4 12 9 9 4 -3 8 -9 8 -15z m141 6 c11 6 11 5 2 -5 -12
-14 -33 -6 -33 13 0 8 3 7 9 -2 5 -8 14 -10 22 -6z m49 0 c0 -8 -2 -15 -4 -15
-2 0 -6 7 -10 15 -3 8 -1 15 4 15 6 0 10 -7 10 -15z m260 -6 c0 -11 -4 -18
-10 -14 -5 3 -7 12 -3 20 7 21 13 19 13 -6z m-2755 1 c-3 -5 -14 -10 -23 -9
-14 0 -13 2 3 9 27 11 27 11 20 0z m598 3 c-7 -2 -19 -2 -25 0 -7 3 -2 5 12 5
14 0 19 -2 13 -5z m-296 -75 c-3 -8 -6 -5 -6 6 -1 11 2 17 5 13 3 -3 4 -12 1
-19z m154 -1 c11 3 19 0 19 -6 0 -7 -4 -9 -10 -6 -5 3 -10 2 -10 -3 0 -5 -7
-9 -15 -9 -10 0 -15 9 -14 26 1 15 3 19 6 10 3 -11 11 -15 24 -12z m1066 -14
c-3 -10 -5 -4 -5 12 0 17 2 24 5 18 2 -7 2 -21 0 -30z m-1530 -5 c-3 -7 -5 -2
-5 12 0 14 2 19 5 13 2 -7 2 -19 0 -25z m423 22 c0 -5 -4 -10 -10 -10 -5 0
-10 5 -10 10 0 6 5 10 10 10 6 0 10 -4 10 -10z m480 0 c0 -5 -4 -10 -10 -10
-5 0 -10 5 -10 10 0 6 5 10 10 10 6 0 10 -4 10 -10z m720 0 c0 -5 -4 -10 -10
-10 -5 0 -10 5 -10 10 0 6 5 10 10 10 6 0 10 -4 10 -10z m827 -22 c-3 -7 -5
-2 -5 12 0 14 2 19 5 13 2 -7 2 -19 0 -25z m-2409 11 c-2 -6 -8 -10 -13 -10
-5 0 -11 4 -13 10 -2 6 4 11 13 11 9 0 15 -5 13 -11z m32 -4 c0 -8 -2 -15 -4
-15 -2 0 -6 7 -10 15 -3 8 -1 15 4 15 6 0 10 -7 10 -15z m105 4 c11 -16 1 -19
-13 -3 -7 8 -8 14 -3 14 5 0 13 -5 16 -11z m33 -14 c-3 -3 -9 2 -12 12 -6 14
-5 15 5 6 7 -7 10 -15 7 -18z m52 17 c0 -13 -12 -22 -22 -16 -10 6 -1 24 13
24 5 0 9 -4 9 -8z m77 -7 c0 -8 -4 -12 -9 -9 -5 3 -6 10 -3 15 9 13 12 11 12
-6z m43 -1 c0 -8 -5 -12 -10 -9 -6 4 -8 11 -5 16 9 14 15 11 15 -7z m128 -9
c-3 -3 -9 2 -12 12 -6 14 -5 15 5 6 7 -7 10 -15 7 -18z m32 10 c0 -8 -2 -15
-4 -15 -2 0 -6 7 -10 15 -3 8 -1 15 4 15 6 0 10 -7 10 -15z m154 3 c-5 -8 -1
-9 12 -4 14 5 16 4 7 -5 -13 -13 -37 -3 -28 12 4 5 8 9 11 9 3 0 2 -5 -2 -12z
m156 -6 c0 -4 -9 -8 -20 -8 -22 0 -27 12 -7 19 14 5 27 -1 27 -11z m130 8 c0
-16 -17 -19 -34 -7 -14 11 -13 12 9 13 14 1 25 -2 25 -6z m30 -2 c0 -9 3 -9
12 0 16 16 41 15 36 0 -6 -18 -55 -20 -62 -2 -3 8 -1 14 4 14 6 0 10 -5 10
-12z m87 -10 c-3 -8 -6 -5 -6 6 -1 11 2 17 5 13 3 -3 4 -12 1 -19z m61 15
c-10 -2 -18 -9 -18 -14 0 -5 -4 -9 -10 -9 -5 0 -10 7 -10 15 0 10 9 15 28 14
16 -1 20 -3 10 -6z m132 -1 c0 -13 -12 -22 -22 -16 -10 6 -1 24 13 24 5 0 9
-4 9 -8z m50 -7 c0 -8 -2 -15 -4 -15 -2 0 -6 7 -10 15 -3 8 -1 15 4 15 6 0 10
-7 10 -15z m68 3 c-6 -18 -28 -21 -28 -4 0 9 7 16 16 16 9 0 14 -5 12 -12z
m19 -20 c-3 -7 -5 -2 -5 12 0 14 2 19 5 13 2 -7 2 -19 0 -25z m61 7 c-3 -3 -9
2 -12 12 -6 14 -5 15 5 6 7 -7 10 -15 7 -18z m87 16 c3 -5 2 -12 -3 -15 -5 -3
-9 1 -9 9 0 17 3 19 12 6z m149 2 c-5 -5 -12 -12 -16 -18 -4 -6 -8 -2 -8 8 0
9 7 17 17 17 9 0 12 -3 7 -7z m54 -18 c-3 -3 -9 2 -12 12 -6 14 -5 15 5 6 7
-7 10 -15 7 -18z m29 10 c0 -8 -4 -12 -9 -9 -5 3 -6 10 -3 15 9 13 12 11 12
-6z m146 -2 c-3 -7 -9 -10 -14 -7 -14 8 -11 21 5 21 8 0 12 -6 9 -14z m91 5
c-5 -8 -1 -9 12 -4 14 5 16 4 7 -5 -13 -13 -37 -3 -28 12 4 5 8 9 11 9 3 0 2
-5 -2 -12z m250 -3 c-4 -8 -8 -15 -10 -15 -2 0 -4 7 -4 15 0 8 4 15 10 15 5 0
7 -7 4 -15z m46 7 c0 -13 -12 -22 -22 -16 -10 6 -1 24 13 24 5 0 9 -4 9 -8z
m47 -14 c-3 -8 -6 -5 -6 6 -1 11 2 17 5 13 3 -3 4 -12 1 -19z m103 7 c0 -12
-19 -12 -23 0 -4 9 -1 12 9 8 7 -3 14 -7 14 -8z m-1903 -17 c-3 -8 -6 -5 -6 6
-1 11 2 17 5 13 3 -3 4 -12 1 -19z m663 18 c0 -2 -7 -7 -16 -10 -8 -3 -12 -2
-9 4 6 10 25 14 25 6z m605 -6 c3 -6 -1 -7 -9 -4 -18 7 -21 14 -7 14 6 0 13
-4 16 -10z m1845 -354 c0 -13 -7 -29 -15 -36 -8 -7 -15 -18 -15 -25 0 -22 -34
-42 -60 -36 -31 9 -35 58 -5 75 11 6 31 19 44 29 33 24 51 21 51 -7z m-3524
-8 c17 -19 17 -21 2 -15 -14 5 -18 1 -18 -18 0 -14 -4 -25 -10 -25 -5 0 -10
12 -10 26 0 14 -4 23 -10 19 -14 -9 -13 8 2 23 17 17 22 15 44 -10z m1771 11
c9 -9 8 -15 -3 -26 -12 -13 -16 -12 -31 2 -14 14 -14 18 -2 26 18 11 23 11 36
-2z m-47 -21 c16 -21 17 -24 1 -45 -18 -26 -31 -29 -31 -9 0 8 -8 17 -17 21
-17 6 -17 7 0 19 9 7 17 18 17 25 0 17 10 13 30 -11z m-1750 -58 c22 0 40 5
43 13 2 6 8 9 12 5 4 -4 5 -14 2 -23 -5 -11 -21 -15 -57 -15 -45 0 -50 2 -49
23 0 12 3 16 6 10 2 -7 22 -13 43 -13z m1786 9 c10 -17 -13 -36 -27 -22 -12
12 -4 33 11 33 5 0 12 -5 16 -11z m-1866 -329 c0 -28 5 -43 16 -47 21 -8 34
13 34 55 0 20 4 31 10 27 25 -16 -2 -105 -32 -105 -25 0 -48 34 -48 72 0 21 5
38 10 38 6 0 10 -18 10 -40z m186 -11 c-5 -70 -16 -74 -16 -6 0 32 4 57 10 57
6 0 9 -21 6 -51z m252 -1 c-2 -41 -7 -52 -22 -54 -31 -4 -46 7 -46 36 0 27 22
46 41 34 5 -3 9 4 9 15 0 12 5 21 11 21 6 0 9 -20 7 -52z m108 41 c4 -7 8 -27
10 -46 3 -28 -1 -36 -21 -45 -39 -17 -55 -4 -55 45 0 24 3 47 7 50 11 11 51 8
59 -4z m104 1 c0 -5 -4 -10 -10 -10 -5 0 -10 5 -10 10 0 6 5 10 10 10 6 0 10
-4 10 -10z m137 -4 c-14 -11 -15 -15 -5 -20 10 -5 10 -7 1 -12 -7 -3 -13 -19
-13 -35 0 -39 -16 -29 -23 13 -6 42 8 68 36 68 21 -1 21 -1 4 -14z m1023 4
c16 -10 8 -13 -26 -11 -30 3 -48 -22 -34 -48 11 -22 35 -28 45 -11 3 6 1 10
-4 10 -6 0 -11 5 -11 10 0 6 11 10 25 10 30 0 32 -13 5 -40 -26 -26 -38 -25
-67 2 -27 25 -28 36 -7 66 16 23 49 28 74 12z m443 -54 c-8 -45 -23 -56 -23
-18 0 18 -4 32 -9 32 -5 0 -4 11 2 25 11 22 13 23 24 9 7 -10 10 -30 6 -48z
m201 51 c26 -19 18 -68 -15 -86 -42 -23 -59 -9 -59 49 0 48 1 50 28 50 16 0
36 -6 46 -13z m1085 -1 c13 -15 5 -46 -12 -46 -5 0 -2 -9 8 -20 10 -11 15 -23
11 -28 -5 -4 -15 3 -23 16 -19 28 -33 28 -33 1 0 -11 -4 -17 -10 -14 -11 7
-14 88 -3 98 11 12 50 8 62 -7z m157 6 c14 -9 18 -89 4 -97 -6 -4 -10 6 -10
25 0 40 -22 36 -31 -6 l-7 -29 -1 32 c0 17 -7 34 -13 37 -10 5 -10 7 0 12 6 3
12 12 12 20 0 15 28 19 46 6z m291 -7 c2 -6 -9 -11 -24 -10 -22 0 -29 -5 -31
-24 -4 -27 15 -43 42 -35 13 4 17 2 14 -7 -7 -21 -37 -23 -59 -3 -24 22 -25
69 -1 83 20 13 54 10 59 -4z m313 5 c0 -5 -5 -10 -11 -10 -5 0 -7 5 -4 10 3 6
8 10 11 10 2 0 4 -4 4 -10z m-37 -14 c5 -14 1 -46 -10 -76 -4 -9 -9 2 -13 25
-8 41 -4 65 10 65 4 0 10 -6 13 -14z m-4113 -25 c17 -32 -13 -72 -41 -55 -5 3
-9 -2 -9 -10 0 -9 -4 -16 -10 -16 -10 0 -15 82 -6 91 14 14 56 7 66 -10z m108
7 c17 -17 15 -43 -4 -59 -31 -26 -70 25 -44 56 15 18 32 19 48 3z m92 -28 c0
-30 -4 -36 -22 -37 -27 -2 -48 14 -48 36 0 24 20 41 47 39 19 -2 23 -8 23 -38z
m270 29 c0 -5 -7 -9 -15 -9 -10 0 -15 -10 -15 -31 0 -17 -4 -28 -10 -24 -5 3
-10 21 -10 39 0 29 3 34 25 34 14 0 25 -4 25 -9z m30 -29 c0 -22 -4 -40 -10
-40 -11 0 -14 63 -3 73 11 12 13 8 13 -33z m68 27 c15 -17 11 -55 -5 -61 -34
-13 -66 32 -43 59 15 18 34 19 48 2z m1180 -4 c12 -22 -2 -63 -21 -63 -20 0
-37 21 -37 46 0 34 43 46 58 17z m79 -28 c1 -34 0 -36 -5 -11 -9 38 -32 47
-32 12 0 -13 -4 -28 -10 -31 -6 -4 -10 9 -10 33 0 36 2 39 28 38 24 -1 27 -5
29 -41z m81 17 c3 -17 -2 -22 -20 -23 -23 -1 -23 -1 2 -8 22 -6 23 -8 7 -14
-24 -9 -23 -9 -41 9 -20 20 -20 29 0 49 22 21 48 15 52 -13z m69 16 c7 -5 14
-5 18 1 3 6 17 10 30 9 22 -2 25 -7 25 -38 0 -31 -3 -36 -22 -35 -32 0 -48 13
-48 36 0 32 -34 19 -41 -16 -6 -28 -7 -27 -8 11 -1 32 3 41 17 41 9 0 22 -4
29 -9z m202 -2 c14 -17 -2 -66 -22 -66 -18 0 -37 21 -37 40 0 34 38 51 59 26z
m211 -1 c10 -12 10 -21 2 -40 -13 -29 -21 -30 -47 -11 -17 12 -18 18 -7 40 13
29 33 33 52 11z m65 5 c3 -5 -1 -10 -11 -10 -13 0 -12 -3 6 -18 19 -15 20 -19
7 -30 -8 -7 -22 -10 -31 -6 -24 9 -19 23 7 17 22 -6 22 -6 -2 14 -14 11 -21
25 -17 31 9 15 33 16 41 2z m32 -52 c-2 -13 -4 -3 -4 22 0 25 2 35 4 23 2 -13
2 -33 0 -45z m93 16 c0 -33 -5 -46 -19 -54 -21 -11 -51 -4 -51 12 0 6 7 7 16
4 9 -3 21 -3 27 1 7 4 2 9 -13 13 -16 4 -26 14 -28 29 -4 27 9 39 44 39 22 0
24 -5 24 -44z m78 2 c2 -25 0 -36 -7 -31 -6 3 -11 18 -11 31 0 35 -24 25 -30
-12 -7 -38 -19 -18 -13 22 4 26 9 31 31 30 24 -1 27 -6 30 -40z m62 34 c0 -5
-7 -10 -16 -10 -13 0 -11 -4 6 -18 19 -15 20 -19 7 -30 -8 -7 -22 -10 -31 -6
-21 8 -10 25 12 17 11 -3 8 1 -6 12 -18 13 -21 20 -11 31 13 16 39 19 39 4z
m750 -5 c15 -18 5 -35 -23 -36 -20 -1 -20 -2 3 -9 22 -6 23 -8 7 -15 -23 -10
-47 11 -47 40 0 34 38 47 60 20z m158 2 c14 -11 16 -67 2 -67 -5 0 -10 14 -10
31 0 38 -24 35 -28 -4 -2 -15 -8 -25 -13 -22 -9 6 -13 58 -4 67 9 8 39 6 53
-5z m81 -1 c14 -17 -2 -66 -22 -66 -18 0 -37 21 -37 40 0 34 38 51 59 26z
m201 4 c0 -5 -7 -10 -15 -10 -9 0 -15 -9 -15 -24 0 -14 -4 -28 -10 -31 -6 -4
-10 10 -10 34 0 37 2 41 25 41 14 0 25 -4 25 -10z m58 2 c15 -10 12 -60 -5
-66 -33 -13 -60 22 -43 55 11 20 27 24 48 11z m92 -32 c0 -30 -4 -36 -22 -37
-27 -2 -48 14 -48 36 0 24 20 41 47 39 19 -2 23 -8 23 -38z m90 -1 c0 -24 -4
-38 -10 -34 -17 10 -11 75 7 75 2 0 3 -18 3 -41z m80 26 c24 -28 -9 -72 -45
-59 -18 7 -20 60 -2 67 22 9 34 7 47 -8z m78 3 c14 -14 16 -54 3 -63 -5 -3
-11 7 -13 22 -4 39 -28 42 -28 4 0 -17 -4 -31 -10 -31 -5 0 -10 18 -10 40 0
35 3 40 23 40 13 0 28 -5 35 -12z m-3931 -190 c-3 -7 -5 -2 -5 12 0 14 2 19 5
13 2 -7 2 -19 0 -25z m353 12 c0 -11 -4 -20 -9 -20 -7 0 -8 17 -2 38 4 10 11
-2 11 -18z m85 10 c3 -5 1 -10 -4 -10 -6 0 -11 5 -11 10 0 6 2 10 4 10 3 0 8
-4 11 -10z m175 -25 c0 -5 -5 -3 -10 5 -8 12 -10 12 -10 1 0 -8 -2 -12 -5 -9
-3 3 -2 13 1 22 5 14 9 15 15 4 5 -7 9 -17 9 -23z m626 -2 c-3 -4 -6 0 -6 8 0
12 -2 12 -10 -1 -5 -8 -12 -11 -15 -8 -4 4 -1 13 6 21 12 13 15 13 22 0 5 -8
6 -17 3 -20z m127 12 c-7 -21 -13 -19 -13 6 0 11 4 18 10 14 5 -3 7 -12 3 -20z
m277 -10 c0 -5 -5 -3 -10 5 -8 12 -10 12 -10 1 0 -8 -2 -12 -5 -9 -3 3 -2 13
1 22 5 14 9 15 15 4 5 -7 9 -17 9 -23z m160 27 c0 -4 -10 -13 -22 -21 -23 -14
-23 -14 -4 8 20 22 26 25 26 13z m567 -9 c5 3 10 -1 10 -9 0 -8 -6 -13 -12
-10 -7 2 -17 0 -23 -6 -6 -6 -8 -1 -4 17 3 17 7 23 12 15 4 -7 12 -10 17 -7z
m586 2 c4 -8 2 -17 -3 -20 -6 -4 -10 3 -10 14 0 25 6 27 13 6z m107 5 c0 -5
-5 -10 -11 -10 -5 0 -7 5 -4 10 3 6 8 10 11 10 2 0 4 -4 4 -10z m730 -10 c0
-17 -3 -19 -19 -10 -27 14 -31 13 -25 -7 5 -15 4 -16 -5 -3 -9 12 -12 13 -20
1 -6 -9 -11 -10 -15 -2 -12 19 2 28 39 25 19 -1 35 2 35 7 0 5 2 9 5 9 3 0 5
-9 5 -20z m347 -12 c-3 -7 -5 -2 -5 12 0 14 2 19 5 13 2 -7 2 -19 0 -25z
m-4385 0 c-7 -7 -12 -8 -12 -2 0 14 12 26 19 19 2 -3 -1 -11 -7 -17z m55 2 c1
-11 -2 -20 -8 -20 -10 0 -12 23 -2 33 9 9 9 10 10 -13z m93 5 c0 -1 -6 -8 -14
-14 -11 -9 -16 -9 -22 0 -5 8 -3 9 6 4 10 -6 12 -4 7 8 -4 11 -2 14 9 10 7 -3
14 -6 14 -8z m189 -11 c2 -2 -7 -4 -21 -4 -15 0 -25 6 -25 14 0 12 5 13 21 4
12 -6 23 -12 25 -14z m69 1 c-3 -3 -9 2 -12 12 -6 14 -5 15 5 6 7 -7 10 -15 7
-18z m152 15 c8 -5 11 -13 6 -17 -5 -4 -11 -2 -13 5 -4 10 -8 10 -19 1 -8 -7
-18 -9 -21 -5 -7 6 14 26 27 26 3 0 12 -4 20 -10z m166 -10 c0 -12 -4 -16 -9
-11 -5 5 -6 14 -3 20 10 15 12 14 12 -9z m68 7 c-5 -15 -41 -20 -49 -6 -3 5 0
6 8 3 8 -3 18 -1 22 5 9 15 25 14 19 -2z m159 -2 c-3 -9 -8 -14 -10 -11 -3 3
-2 9 2 15 9 16 15 13 8 -4z m52 6 c3 -5 1 -12 -5 -16 -5 -3 -10 1 -10 9 0 18
6 21 15 7z m51 -11 c0 -11 -4 -20 -8 -20 -4 0 -8 9 -8 20 0 11 4 20 8 20 4 0
8 -9 8 -20z m482 -5 c-3 -3 -9 2 -12 12 -6 14 -5 15 5 6 7 -7 10 -15 7 -18z
m150 0 c-3 -3 -9 2 -12 12 -6 14 -5 15 5 6 7 -7 10 -15 7 -18z m26 10 c3 -8 1
-15 -4 -15 -6 0 -10 7 -10 15 0 8 2 15 4 15 2 0 6 -7 10 -15z m42 -4 c0 -11
-4 -17 -8 -15 -4 3 -8 12 -8 20 0 8 4 14 8 14 4 0 8 -9 8 -19z m191 -2 c2 -16
-1 -19 -9 -11 -5 5 -7 15 -4 21 10 15 12 14 13 -10z m56 6 c-3 -9 -8 -14 -10
-11 -3 3 -2 9 2 15 9 16 15 13 8 -4z m157 0 c0 -17 -25 -20 -35 -5 -3 6 1 7 9
4 9 -3 16 -1 16 5 0 6 2 11 5 11 3 0 5 -7 5 -15z m267 -5 c14 -9 15 -10 1 -6
-9 2 -19 2 -22 -1 -9 -10 -57 -10 -62 -1 -17 27 45 32 83 8z m86 4 c-6 -16
-29 -25 -48 -18 -17 7 -20 24 -5 24 6 0 10 -4 10 -10 0 -5 5 -10 11 -10 6 0 9
6 6 13 -3 7 3 13 13 13 10 0 16 -6 13 -12z m161 -14 c-8 -8 -15 -5 -25 7 -13
17 -13 17 5 3 18 -14 19 -13 12 5 -6 16 -5 18 5 8 9 -9 10 -16 3 -23z m598 8
c-7 -7 -12 -8 -12 -2 0 14 12 26 19 19 2 -3 -1 -11 -7 -17z m201 5 c-6 -16 -5
-16 10 -4 10 8 20 11 24 8 3 -4 14 -2 24 4 15 7 17 6 13 -5 -7 -19 -32 -28
-40 -15 -4 7 -10 6 -19 -1 -9 -7 -15 -8 -19 -1 -4 6 -14 8 -24 5 -9 -3 -6 2 8
10 31 19 31 19 23 -1z m157 13 c0 -3 -4 -8 -10 -11 -5 -3 -10 -1 -10 4 0 6 5
11 10 11 6 0 10 -2 10 -4z m87 -9 c6 2 14 0 17 -6 4 -6 -5 -9 -21 -7 -16 1
-33 -1 -38 -5 -7 -5 -11 0 -11 10 0 15 5 17 21 11 11 -4 25 -5 32 -3z m51 -1
c-7 -8 -15 -12 -17 -11 -5 6 10 25 20 25 5 0 4 -6 -3 -14z m88 -6 c0 -12 -4
-16 -9 -11 -5 5 -6 14 -3 20 10 15 12 14 12 -9z m44 16 c0 -2 -7 -7 -16 -10
-8 -3 -12 -2 -9 4 6 10 25 14 25 6z m378 -13 c2 -7 -1 -13 -8 -13 -6 0 -8 5
-5 10 3 6 1 10 -4 10 -6 0 -11 -5 -11 -11 0 -5 -4 -7 -10 -4 -5 3 -10 1 -10
-6 0 -8 -4 -8 -15 1 -10 8 -12 16 -6 20 18 10 64 6 69 -7z m19 -15 c-3 -7 -5
-2 -5 12 0 14 2 19 5 13 2 -7 2 -19 0 -25z m119 12 c0 -12 -4 -16 -9 -11 -5 5
-6 14 -3 20 10 15 12 14 12 -9z m147 -6 c-4 -10 -9 -12 -16 -5 -5 5 -17 7 -26
5 -9 -3 -5 1 9 9 28 17 42 13 33 -9z m-4842 -7 c-10 -9 -11 -8 -5 6 3 10 9 15
12 12 3 -3 0 -11 -7 -18z m142 6 c-3 -7 -9 -10 -14 -7 -14 8 -11 21 5 21 8 0
12 -6 9 -14z m115 -8 c-3 -3 -9 2 -12 12 -6 14 -5 15 5 6 7 -7 10 -15 7 -18z
m112 15 c0 -5 -2 -10 -4 -10 -3 0 -8 5 -11 10 -3 6 -1 10 4 10 6 0 11 -4 11
-10z m565 -8 c-3 -3 -11 0 -18 7 -9 10 -8 11 6 5 10 -3 15 -9 12 -12z m929 2
c3 -8 2 -12 -4 -9 -6 3 -10 10 -10 16 0 14 7 11 14 -7z m236 7 c0 -9 -38 -12
-44 -3 -2 4 7 8 20 8 13 1 24 -1 24 -5z m493 -9 c-4 -9 -9 -10 -16 -3 -5 5
-17 7 -26 4 -13 -4 -14 -3 -2 5 21 15 50 11 44 -6z m392 8 c3 -5 1 -10 -4 -10
-6 0 -11 5 -11 10 0 6 2 10 4 10 3 0 8 -4 11 -10z m540 0 c3 -5 2 -10 -4 -10
-5 0 -13 5 -16 10 -3 6 -2 10 4 10 5 0 13 -4 16 -10z m98 -7 c-3 -7 -9 -10
-14 -7 -14 8 -11 21 5 21 8 0 12 -6 9 -14z m251 1 c3 -8 2 -12 -4 -9 -6 3 -10
10 -10 16 0 14 7 11 14 -7z m506 7 c0 -10 -26 -9 -36 2 -4 4 2 7 14 7 12 0 22
-4 22 -9z m227 -13 c-3 -8 -6 -5 -6 6 -1 11 2 17 5 13 3 -3 4 -12 1 -19z
m-2797 -57 c0 -12 -9 -20 -23 -23 -17 -3 -23 0 -23 14 0 12 4 14 10 8 14 -14
26 -12 26 5 0 8 2 15 5 15 3 0 5 -8 5 -19z m1690 -1 c0 -4 -6 -10 -14 -13 -10
-4 -12 0 -9 14 5 18 23 18 23 -1z m-3408 -12 c-7 -7 -12 -8 -12 -2 0 14 12 26
19 19 2 -3 -1 -11 -7 -17z m148 12 c-8 -5 -11 -12 -7 -16 4 -4 16 1 27 11 17
16 20 16 15 3 -8 -21 -35 -32 -48 -19 -11 11 -1 31 16 31 7 0 6 -4 -3 -10z
m1500 0 c0 -5 -2 -10 -4 -10 -3 0 -8 5 -11 10 -3 6 -1 10 4 10 6 0 11 -4 11
-10z m123 -6 c-7 -20 -29 -23 -29 -5 0 9 8 17 17 17 9 0 15 -6 12 -12z m87 -3
c0 -15 -7 -18 -32 -17 -28 1 -56 26 -29 26 6 0 11 -5 11 -11 0 -6 7 -3 16 5
21 21 34 20 34 -3z m75 -11 c-5 -8 -11 -8 -17 -2 -6 6 -7 16 -3 22 5 8 11 8
17 2 6 -6 7 -16 3 -22z m100 12 c-3 -3 -11 0 -18 7 -9 10 -8 11 6 5 10 -3 15
-9 12 -12z m1480 -11 c-3 -6 -11 -11 -16 -11 -5 0 -4 6 3 14 14 16 24 13 13
-3z m80 10 c3 -5 2 -12 -3 -15 -5 -3 -9 1 -9 9 0 17 3 19 12 6z m-3685 -10 c0
-6 -4 -13 -10 -16 -5 -3 -10 1 -10 9 0 9 5 16 10 16 6 0 10 -4 10 -9z"/>
<path d="M2690 6306 c-15 -19 -9 -56 12 -69 26 -17 68 7 68 37 0 40 -55 61
-80 32z"/>
<path d="M7067 5283 c37 -29 123 -75 123 -65 0 5 -33 26 -72 47 -40 20 -63 28
-51 18z"/>
<path d="M7304 4859 c19 -23 40 -57 46 -75 7 -19 16 -34 21 -34 24 0 -8 69
-54 118 -45 47 -55 39 -13 -9z"/>
<path d="M5135 5076 c-18 -27 -11 -53 16 -61 39 -13 67 43 37 73 -18 18 -36
14 -53 -12z"/>
<path d="M6648 4983 c7 -3 16 -2 19 1 4 3 -2 6 -13 5 -11 0 -14 -3 -6 -6z"/>
<path d="M3552 5104 c-13 -44 -12 -47 21 -42 24 3 24 3 8 42 l-17 39 -12 -39z"/>
<path d="M4000 5134 c0 -35 1 -35 38 -32 30 2 38 7 40 27 4 28 -12 41 -50 41
-25 0 -28 -3 -28 -36z"/>
<path d="M2945 5076 c-18 -27 -11 -53 16 -61 39 -13 67 43 37 73 -18 18 -36
14 -53 -12z"/>
<path d="M4208 5089 c-38 -22 -11 -88 31 -74 29 9 36 42 15 66 -20 22 -22 22
-46 8z"/>
<path d="M4637 5094 c-15 -16 -5 -24 29 -24 24 0 34 4 32 13 -5 13 -50 22 -61
11z"/>
<path d="M4957 5094 c-15 -15 -6 -24 24 -24 20 0 29 4 27 13 -5 14 -40 21 -51
11z"/>
<path d="M3902 4697 c-17 -46 -16 -47 19 -47 24 0 30 3 25 16 -3 9 -9 27 -12
40 -8 33 -18 30 -32 -9z"/>
<path d="M4760 4675 c-26 -32 13 -81 48 -59 34 22 22 74 -18 74 -10 0 -23 -7
-30 -15z"/>
<path d="M3300 4300 c0 -5 5 -10 10 -10 6 0 10 5 10 10 0 6 -4 10 -10 10 -5 0
-10 -4 -10 -10z"/>
<path d="M2710 4300 c0 -5 5 -10 10 -10 6 0 10 5 10 10 0 6 -4 10 -10 10 -5 0
-10 -4 -10 -10z"/>
<path d="M2860 4300 c0 -5 5 -10 10 -10 6 0 10 5 10 10 0 6 -4 10 -10 10 -5 0
-10 -4 -10 -10z"/>
<path d="M3170 4300 c0 -5 5 -10 10 -10 6 0 10 5 10 10 0 6 -4 10 -10 10 -5 0
-10 -4 -10 -10z"/>
<path d="M3920 4300 c0 -5 5 -10 10 -10 6 0 10 5 10 10 0 6 -4 10 -10 10 -5 0
-10 -4 -10 -10z"/>
<path d="M4090 4300 c0 -5 5 -10 10 -10 6 0 10 5 10 10 0 6 -4 10 -10 10 -5 0
-10 -4 -10 -10z"/>
<path d="M4470 4300 c0 -5 5 -10 10 -10 6 0 10 5 10 10 0 6 -4 10 -10 10 -5 0
-10 -4 -10 -10z"/>
<path d="M4530 4300 c0 -5 5 -10 10 -10 6 0 10 5 10 10 0 6 -4 10 -10 10 -5 0
-10 -4 -10 -10z"/>
<path d="M4570 4300 c0 -5 5 -10 10 -10 6 0 10 5 10 10 0 6 -4 10 -10 10 -5 0
-10 -4 -10 -10z"/>
<path d="M6065 3450 c3 -5 8 -10 11 -10 2 0 4 5 4 10 0 6 -5 10 -11 10 -5 0
-7 -4 -4 -10z"/>
<path d="M5096 2955 c-9 -23 -8 -24 14 -22 12 1 19 7 18 16 -4 21 -24 25 -32
6z"/>
<path d="M6025 2975 c-24 -19 -26 -24 -12 -25 15 0 16 -3 7 -21 -17 -31 -6
-34 29 -8 17 13 27 25 22 28 -5 3 -11 16 -12 28 l-4 23 -30 -25z"/>
<path d="M3659 2974 c-22 -23 -22 -24 -4 -44 10 -11 26 -20 36 -20 25 0 43 35
30 59 -16 30 -37 32 -62 5z"/>
<path d="M4825 2960 c-7 -12 2 -30 16 -30 5 0 9 9 9 20 0 21 -15 27 -25 10z"/>
<path d="M4900 2955 c0 -9 5 -15 11 -13 6 2 11 8 11 13 0 5 -5 11 -11 13 -6 2
-11 -4 -11 -13z"/>
<path d="M4976 2963 c-12 -12 -6 -33 9 -33 8 0 15 6 15 14 0 17 -14 28 -24 19z"/>
<path d="M3976 2951 c-4 -7 -5 -15 -2 -18 9 -9 19 4 14 18 -4 11 -6 11 -12 0z"/>
<path d="M3900 2940 c0 -5 5 -10 10 -10 6 0 10 5 10 10 0 6 -4 10 -10 10 -5 0
-10 -4 -10 -10z"/>
<path d="M4040 2940 c0 -5 7 -10 15 -10 8 0 15 5 15 10 0 6 -7 10 -15 10 -8 0
-15 -4 -15 -10z"/>
<path d="M6246 2951 c-4 -5 -2 -12 3 -15 5 -4 12 -2 15 3 4 5 2 12 -3 15 -5 4
-12 2 -15 -3z"/>
<path d="M6305 2951 c-3 -5 -1 -12 5 -16 5 -3 10 1 10 9 0 18 -6 21 -15 7z"/>
<path d="M6366 2951 c-4 -7 -5 -15 -2 -18 9 -9 19 4 14 18 -4 11 -6 11 -12 0z"/>
<path d="M6450 2940 c0 -5 5 -10 10 -10 6 0 10 5 10 10 0 6 -4 10 -10 10 -5 0
-10 -4 -10 -10z"/>
<path d="M5270 2950 c0 -13 5 -20 13 -17 6 2 12 10 12 17 0 7 -6 15 -12 18 -8
2 -13 -5 -13 -18z"/>
<path d="M5325 2940 c3 -5 14 -10 23 -10 15 0 15 2 2 10 -20 13 -33 13 -25 0z"/>
<path d="M2850 2935 c0 -8 7 -15 15 -15 8 0 15 7 15 15 0 8 -7 15 -15 15 -8 0
-15 -7 -15 -15z"/>
<path d="M2955 2941 c-7 -12 12 -24 25 -16 11 7 4 25 -10 25 -5 0 -11 -4 -15
-9z"/>
<path d="M4150 2940 c0 -5 7 -10 15 -10 8 0 15 5 15 10 0 6 -7 10 -15 10 -8 0
-15 -4 -15 -10z"/>
<path d="M7332 2939 c2 -6 8 -10 13 -10 5 0 11 4 13 10 2 6 -4 11 -13 11 -9 0
-15 -5 -13 -11z"/>
<path d="M2987 1944 c-15 -15 -6 -24 24 -24 20 0 29 4 27 13 -5 14 -40 21 -51
11z"/>
<path d="M3132 1938 c-28 -28 -1 -75 38 -63 33 11 21 75 -15 75 -6 0 -16 -5
-23 -12z"/>
<path d="M3752 1938 c-28 -28 -1 -75 38 -63 14 4 20 15 20 35 0 36 -33 53 -58
28z"/>
<path d="M3024 819 c-10 -17 13 -36 27 -22 12 12 4 33 -11 33 -5 0 -12 -5 -16
-11z"/>
<path d="M3140 850 c0 -5 6 -10 14 -10 8 0 18 5 21 10 3 6 -3 10 -14 10 -12 0
-21 -4 -21 -10z"/>
<path d="M3140 804 c0 -9 7 -14 17 -12 25 5 28 28 4 28 -12 0 -21 -6 -21 -16z"/>
<path d="M5040 826 c0 -22 5 -36 13 -36 42 1 51 62 10 68 -20 3 -23 -1 -23
-32z"/>
<path d="M6133 848 c2 -7 10 -13 17 -13 7 0 15 6 18 13 2 7 -5 12 -18 12 -13
0 -20 -5 -17 -12z"/>
<path d="M6305 860 c-3 -5 1 -10 9 -10 9 0 16 5 16 10 0 6 -4 10 -9 10 -6 0
-13 -4 -16 -10z"/>
<path d="M2744 819 c-10 -17 13 -36 27 -22 12 12 4 33 -11 33 -5 0 -12 -5 -16
-11z"/>
<path d="M2860 810 c0 -11 7 -20 15 -20 8 0 15 9 15 20 0 11 -7 20 -15 20 -8
0 -15 -9 -15 -20z"/>
<path d="M2942 813 c5 -25 28 -28 28 -4 0 12 -6 21 -16 21 -9 0 -14 -7 -12
-17z"/>
<path d="M4508 793 c7 -3 16 -2 19 1 4 3 -2 6 -13 5 -11 0 -14 -3 -6 -6z"/>
<path d="M4792 813 c5 -25 28 -28 28 -4 0 12 -6 21 -16 21 -9 0 -14 -7 -12
-17z"/>
<path d="M4938 823 c7 -3 16 -2 19 1 4 3 -2 6 -13 5 -11 0 -14 -3 -6 -6z"/>
<path d="M4938 793 c7 -3 16 -2 19 1 4 3 -2 6 -13 5 -11 0 -14 -3 -6 -6z"/>
<path d="M5322 814 c4 -21 22 -23 26 -1 2 10 -3 17 -13 17 -10 0 -15 -6 -13
-16z"/>
<path d="M6468 823 c7 -3 16 -2 19 1 4 3 -2 6 -13 5 -11 0 -14 -3 -6 -6z"/>
<path d="M6468 793 c7 -3 16 -2 19 1 4 3 -2 6 -13 5 -11 0 -14 -3 -6 -6z"/>
<path d="M6804 819 c-3 -6 -1 -16 5 -22 9 -9 14 -8 21 3 9 15 4 30 -10 30 -5
0 -12 -5 -16 -11z"/>
<path d="M6974 819 c-10 -17 13 -36 27 -22 12 12 4 33 -11 33 -5 0 -12 -5 -16
-11z"/>
<path d="M5270 649 c0 -5 5 -7 10 -4 6 3 10 8 10 11 0 2 -4 4 -10 4 -5 0 -10
-5 -10 -11z"/>
</g>
</svg>
