<?xml version="1.0" standalone="no"?>
<!DOCTYPE svg PUBLIC "-//W3C//DTD SVG 20010904//EN"
 "http://www.w3.org/TR/2001/REC-SVG-20010904/DTD/svg10.dtd">
<svg version="1.0" xmlns="http://www.w3.org/2000/svg"
 width="1366.000000pt" height="610.000000pt" viewBox="0 0 1366.000000 610.000000"
 preserveAspectRatio="xMidYMid meet">

<g transform="translate(0.000000,610.000000) scale(0.100000,-0.100000)"
fill="#000000" stroke="none">
<path d="M5292 5769 c-47 -14 -109 -79 -122 -130 -7 -26 -10 -98 -8 -184 3
-134 4 -144 30 -182 15 -22 44 -51 65 -64 l38 -24 1465 0 1465 0 38 24 c21 13
50 42 65 64 27 40 27 43 27 207 0 164 0 167 -27 207 -15 22 -44 51 -65 64
l-38 24 -1450 2 c-897 1 -1463 -2 -1483 -8z m2883 -134 c24 -23 25 -29 25
-155 0 -126 -1 -132 -25 -155 -24 -25 -27 -25 -195 -25 -168 0 -171 0 -195 25
-24 23 -25 29 -25 155 0 126 1 132 25 155 24 25 27 25 195 25 168 0 171 0 195
-25z m-2485 -80 c0 -8 -7 -15 -15 -15 -8 0 -15 7 -15 15 0 8 7 15 15 15 8 0
15 -7 15 -15z m494 6 c3 -5 -2 -12 -11 -15 -28 -11 5 -25 44 -19 44 7 63 -10
63 -58 0 -22 5 -39 10 -39 6 0 10 22 10 48 l0 49 50 2 50 1 0 -60 c0 -47 -3
-60 -15 -60 -11 0 -15 12 -15 46 0 38 -3 45 -17 42 -13 -2 -19 -15 -21 -46
l-3 -42 -75 0 c-41 0 -74 2 -74 4 0 2 -3 11 -6 19 -7 20 22 47 52 47 13 0 24
4 24 9 0 5 -20 9 -45 8 l-45 -2 0 -42 0 -43 -75 0 c-53 0 -75 4 -76 13 0 10
-2 10 -6 0 -10 -25 -42 -12 -72 29 l-31 42 0 -42 c0 -35 -3 -42 -20 -42 -18 0
-20 7 -20 75 0 68 2 75 20 75 12 0 30 -16 47 -42 l28 -42 3 42 c3 34 7 42 23
42 16 0 19 -7 19 -56 0 -50 1 -54 16 -40 8 9 26 16 40 16 13 0 24 5 24 11 0 7
-12 9 -35 5 -36 -7 -44 1 -23 22 15 15 64 16 73 2 7 -12 28 6 38 33 7 18 42
24 51 8z m216 -6 c0 -8 -7 -15 -15 -15 -8 0 -15 7 -15 15 0 8 7 15 15 15 8 0
15 -7 15 -15z m-951 -70 l26 -70 3 56 3 56 44 1 c41 1 44 -1 58 -35 l14 -37
14 37 c11 32 17 37 46 37 l33 0 0 -60 c0 -46 -3 -60 -14 -60 -11 0 -16 15 -18
53 l-3 52 -20 -53 c-25 -66 -51 -68 -74 -4 -23 62 -51 52 -51 -19 0 -27 -3
-29 -35 -29 -22 0 -38 6 -41 15 -4 9 -19 15 -40 15 -24 0 -34 -5 -34 -15 0 -9
-9 -15 -21 -15 -11 0 -19 4 -17 8 2 4 14 38 28 75 22 61 27 68 49 65 20 -3 29
-15 50 -73z m339 39 c20 -4 22 -10 22 -59 0 -42 -3 -55 -15 -55 -11 0 -15 12
-15 45 0 38 -3 45 -20 45 -17 0 -20 -7 -20 -45 0 -38 -3 -45 -20 -45 -17 0
-20 7 -20 53 0 30 3 56 6 59 6 7 49 7 82 2z"/>
<path d="M7894 5489 c-10 -17 13 -36 27 -22 12 12 4 33 -11 33 -5 0 -12 -5
-16 -11z"/>
<path d="M7964 5489 c-10 -17 13 -36 27 -22 12 12 4 33 -11 33 -5 0 -12 -5
-16 -11z"/>
<path d="M8034 5489 c-10 -17 13 -36 27 -22 12 12 4 33 -11 33 -5 0 -12 -5
-16 -11z"/>
<path d="M6110 5465 c0 -19 5 -35 10 -35 6 0 10 16 10 35 0 19 -4 35 -10 35
-5 0 -10 -16 -10 -35z"/>
<path d="M6047 5453 c-12 -11 -8 -23 7 -23 8 0 16 7 20 15 5 15 -14 21 -27 8z"/>
<path d="M6217 5453 c-12 -11 -8 -23 7 -23 8 0 16 7 20 15 5 15 -14 21 -27 8z"/>
<path d="M5387 5499 c-7 -27 -4 -32 17 -27 12 2 13 7 2 27 l-13 23 -6 -23z"/>
<path d="M1345 4992 c-6 -4 -30 -58 -55 -120 -38 -98 -50 -120 -97 -165 -63
-61 -78 -70 -208 -118 -82 -30 -101 -41 -108 -62 -14 -43 13 -70 111 -108 48
-19 93 -34 100 -34 19 0 80 -53 112 -97 16 -21 45 -87 65 -146 40 -121 42
-125 72 -141 27 -14 83 -15 83 -1 0 6 -3 10 -7 10 -23 1 -34 18 -24 36 6 11
26 59 46 108 49 125 59 138 90 124 23 -10 29 -8 63 24 33 32 124 74 247 115
l30 10 -26 13 c-19 8 -25 18 -22 31 6 22 16 24 44 9 15 -8 19 -7 19 5 0 19
-35 55 -55 55 -20 0 -218 79 -230 92 -7 8 -4 9 10 4 17 -5 -29 41 -112 114
-13 10 -23 25 -22 32 0 7 5 3 11 -9 10 -20 36 -38 44 -30 2 2 -12 52 -32 110
-30 91 -40 110 -65 123 -16 8 -29 11 -29 7 0 -4 -5 -2 -12 5 -14 14 -28 15
-43 4z m110 -138 c4 -25 3 -24 -8 6 -8 19 -17 46 -20 60 -5 19 -3 17 8 -6 7
-17 16 -44 20 -60z m372 -346 c-3 -8 -6 -5 -6 6 -1 11 2 17 5 13 3 -3 4 -12 1
-19z"/>
<path d="M2217 4430 c-143 -18 -271 -75 -331 -146 -49 -59 -66 -112 -66 -204
0 -214 114 -303 510 -396 58 -14 124 -36 146 -49 94 -55 78 -157 -31 -186 -22
-6 -79 -11 -127 -11 -137 1 -200 37 -223 129 l-12 48 -124 3 c-68 1 -135 0
-148 -3 -22 -6 -23 -9 -18 -63 15 -137 78 -228 201 -287 189 -91 527 -85 693
12 62 36 129 115 149 176 27 80 25 209 -4 269 -57 115 -163 173 -448 243 -212
53 -264 85 -249 154 9 44 54 71 135 84 128 20 227 -21 251 -104 l12 -39 150 0
149 0 -6 48 c-19 135 -68 203 -191 264 -101 51 -278 75 -418 58z"/>
<path d="M3483 4429 c-260 -31 -433 -175 -490 -406 -24 -96 -23 -325 1 -413
55 -199 186 -331 386 -386 92 -25 339 -26 430 -1 197 53 322 169 380 352 31
96 39 317 16 424 -46 216 -193 367 -406 415 -87 19 -229 26 -317 15z m263
-266 c49 -26 107 -89 130 -140 26 -57 32 -301 10 -376 -22 -77 -70 -136 -139
-171 -48 -25 -68 -29 -139 -30 -179 -1 -275 74 -308 242 -16 82 -8 260 16 327
22 62 94 136 155 158 65 24 220 18 275 -10z"/>
<path d="M4400 3815 l0 -595 155 0 155 0 0 230 0 230 265 0 266 0 -3 118 -3
117 -262 3 -263 2 0 125 0 125 300 0 300 0 0 120 0 120 -455 0 -455 0 0 -595z"/>
<path d="M5390 4285 l0 -125 195 0 195 0 0 -470 0 -470 155 0 155 0 0 470 0
470 195 0 195 0 0 125 0 125 -545 0 -545 0 0 -125z"/>
<path d="M6644 3843 c79 -313 146 -580 150 -595 l6 -28 178 0 177 0 82 368
c46 202 86 385 89 407 4 22 9 44 12 49 3 6 18 -51 33 -125 15 -74 54 -251 88
-394 33 -143 63 -270 66 -282 5 -23 7 -23 180 -23 96 0 175 2 175 4 0 2 67
270 149 595 l149 591 -153 0 c-150 0 -153 0 -158 -22 -8 -32 -143 -640 -158
-713 l-13 -60 -9 45 c-5 25 -45 202 -88 393 -44 192 -79 350 -79 353 0 2 -77
3 -172 2 l-172 -3 -7 -30 c-3 -16 -39 -183 -78 -370 -40 -187 -75 -351 -78
-365 -4 -17 -16 26 -38 130 -18 85 -58 262 -89 393 -31 130 -56 239 -56 242 0
3 -74 5 -164 5 l-164 0 142 -567z"/>
<path d="M8532 4383 c-5 -16 -105 -281 -221 -590 -116 -310 -211 -565 -211
-568 0 -3 71 -5 158 -5 l158 0 36 103 35 102 239 0 239 0 35 -102 35 -103 166
0 166 0 -222 593 -223 592 -190 3 -190 2 -10 -27z m233 -353 c15 -52 47 -150
71 -218 24 -68 44 -130 44 -138 0 -12 -28 -14 -160 -14 l-159 0 38 108 c21 59
55 163 76 232 20 69 39 129 42 133 10 16 21 -8 48 -103z"/>
<path d="M9480 3815 l0 -595 155 0 155 0 0 210 0 211 137 -3 137 -3 97 -205
97 -205 175 -3 174 -2 -118 233 -118 233 66 59 c49 43 74 76 97 124 29 61 31
74 31 171 0 99 -2 110 -33 172 -44 90 -113 151 -199 178 -61 19 -93 20 -459
20 l-394 0 0 -595z m697 348 c55 -26 75 -65 71 -145 -3 -55 -8 -72 -28 -94
-44 -48 -75 -54 -260 -54 l-170 0 0 155 0 155 176 0 c144 0 182 -3 211 -17z"/>
<path d="M10750 3815 l0 -595 500 0 500 0 0 119 c0 105 -2 120 -17 125 -10 3
-164 4 -343 3 l-325 -1 0 119 0 120 293 3 292 2 0 120 0 120 -295 0 -295 0 0
110 0 110 338 2 337 3 3 118 3 117 -496 0 -495 0 0 -595z"/>
<path d="M5170 2859 c-251 -29 -418 -159 -485 -379 -26 -85 -32 -314 -11 -421
55 -270 222 -410 513 -426 174 -10 309 22 417 97 31 22 58 40 60 40 2 0 9 -27
16 -60 13 -59 13 -60 46 -60 l34 0 0 -691 0 -691 29 -29 29 -29 942 0 942 0
29 29 29 29 0 1079 c0 933 -2 1082 -15 1099 -11 15 -14 57 -15 207 l0 187
-145 0 -145 0 0 -175 0 -175 -132 0 -133 1 -135 174 -135 174 -142 1 -143 0 0
-175 0 -175 -110 0 -110 0 0 175 0 175 -155 0 c-141 0 -155 -2 -156 -17 0 -10
-1 -89 -1 -175 l-1 -158 -107 0 -108 0 -11 48 c-34 133 -161 246 -331 295 -56
16 -214 38 -260 36 -14 -1 -59 -5 -100 -10z m251 -256 c70 -23 124 -75 141
-136 l12 -47 94 0 93 0 -3 -57 -3 -56 -250 -1 -250 -1 -3 -107 -3 -108 161 0
160 0 0 -24 c0 -125 -166 -215 -344 -188 -86 14 -128 35 -175 88 -58 66 -74
136 -69 310 3 128 5 143 31 196 48 99 137 147 273 148 51 0 102 -6 135 -17z
m1659 -483 c18 -23 34 -53 36 -66 1 -14 7 -30 12 -37 8 -10 -10 -10 -81 -4
-51 4 -100 8 -109 8 -10 0 -19 4 -19 10 -1 5 -2 15 -3 22 -1 6 2 21 8 32 6 11
9 24 8 28 -1 5 2 6 8 2 5 -3 10 1 10 9 0 9 6 15 13 14 6 -2 11 2 10 8 -1 5 15
11 37 12 34 2 41 -2 70 -38z m-116 -212 c4 -17 2 -28 -4 -28 -5 0 -10 -5 -10
-11 0 -9 4 -9 14 0 10 8 22 5 50 -14 20 -13 36 -21 36 -17 0 4 24 7 54 7 54 0
54 0 50 -29 -4 -36 -79 -107 -102 -98 -11 4 -14 1 -9 -10 9 -24 -20 -30 -49
-12 -13 9 -24 20 -24 24 0 13 26 30 35 22 4 -4 5 4 1 18 -4 14 -11 36 -14 50
-9 34 -32 37 -32 4 0 -21 -4 -25 -22 -22 -22 3 -23 7 -20 68 5 90 30 116 46
48z m-556 -260 l-3 -73 -23 35 c-22 34 -22 35 -2 38 18 3 20 12 22 110 2 87 3
94 5 35 2 -40 3 -106 1 -145z m862 155 c0 -10 -4 -14 -8 -8 -4 6 -11 13 -16
18 -5 4 -2 7 7 7 10 0 17 -8 17 -17z m-1215 -142 c-17 -35 -31 -51 -45 -51
-18 0 -16 8 23 86 41 83 42 85 45 51 2 -23 -6 -53 -23 -86z m1180 108 c11 -16
1 -19 -13 -3 -7 8 -8 14 -3 14 5 0 13 -5 16 -11z m41 -7 c0 -10 -6 -19 -13
-19 -8 0 -9 6 -2 19 5 10 11 18 12 18 2 0 3 -8 3 -18z m-46 -36 c0 -3 -4 -8
-10 -11 -5 -3 -10 -1 -10 4 0 6 5 11 10 11 6 0 10 -2 10 -4z m27 -21 c-13 -28
-30 -37 -52 -29 -21 9 -19 19 5 21 11 1 27 9 36 17 22 22 24 20 11 -9z m-1017
-90 c0 -24 -5 -35 -15 -35 -10 0 -15 11 -15 35 0 24 5 35 15 35 10 0 15 -11
15 -35z m10 -120 c11 -13 10 -14 -4 -9 -9 3 -16 10 -16 15 0 13 6 11 20 -6z
m237 -7 c-3 -8 -6 -5 -6 6 -1 11 2 17 5 13 3 -3 4 -12 1 -19z m218 -1258 c3
-5 -3 -10 -15 -10 -12 0 -18 5 -15 10 3 6 10 10 15 10 5 0 12 -4 15 -10z"/>
<path d="M4328 2843 l-138 -4 0 -339 c0 -191 -4 -340 -9 -340 -5 0 -17 12 -26
28 -10 15 -128 168 -263 340 l-244 312 -139 0 -139 0 0 -595 0 -595 145 0 145
0 0 341 c-1 188 1 343 3 345 2 3 20 -19 40 -48 19 -29 138 -183 264 -343 l229
-290 137 -3 137 -3 0 601 c0 330 -1 599 -2 598 -2 -1 -65 -4 -140 -5z"/>
<path d="M2190 2245 l0 -595 500 0 500 0 0 119 c0 105 -2 120 -17 125 -10 2
-164 4 -343 4 l-325 -1 -3 121 -3 122 296 0 295 0 0 120 0 120 -295 0 -295 0
0 110 0 110 335 0 335 0 0 120 0 120 -490 0 -490 0 0 -595z"/>
<path d="M7960 2245 l0 -595 500 0 500 0 0 120 c0 116 -1 120 -22 124 -13 3
-167 4 -343 4 l-320 -2 0 120 0 119 293 3 292 2 0 120 0 120 -295 0 -295 0 0
110 0 110 338 2 337 3 3 118 3 117 -496 0 -495 0 0 -595z"/>
<path d="M9140 2245 l0 -595 500 0 501 0 -3 123 -3 122 -340 1 -340 1 0 119 0
119 293 3 292 2 0 120 0 120 -295 0 -296 0 3 108 3 107 335 5 335 5 3 118 3
117 -496 0 -495 0 0 -595z"/>
<path d="M10320 2245 l0 -595 155 0 155 0 0 210 0 210 138 0 138 0 99 -210 98
-210 174 0 174 0 -119 235 -120 234 49 38 c96 73 149 184 149 313 0 177 -100
317 -253 357 -38 10 -150 13 -444 13 l-393 0 0 -595z m700 347 c71 -36 97
-150 51 -225 -36 -58 -78 -68 -271 -65 l-165 3 -3 153 -3 152 178 0 c150 0
184 -3 213 -18z"/>
<path d="M12160 2079 c-33 -15 -73 -52 -150 -141 -58 -66 -160 -182 -227 -257
-67 -75 -119 -138 -116 -141 2 -3 12 4 22 15 19 23 51 35 34 13 -6 -7 -13 -25
-17 -39 -4 -21 -16 -30 -51 -40 -25 -7 -45 -17 -45 -22 0 -5 10 -6 23 -2 64
20 92 -4 33 -29 -20 -8 -36 -20 -36 -27 0 -11 7 -10 70 6 22 5 22 4 -5 -11
l-30 -18 43 -12 c35 -11 48 -10 78 2 48 20 68 12 25 -10 -29 -15 -31 -20 -20
-32 12 -11 22 -11 52 -2 28 9 40 9 49 0 15 -15 -4 -38 -37 -46 -14 -4 -25 -13
-25 -21 0 -18 -1 -18 44 0 34 15 36 14 36 -4 0 -20 -79 -244 -102 -288 -6 -12
-27 -28 -45 -34 -22 -7 -31 -15 -25 -21 13 -13 92 20 100 42 4 9 120 137 257
284 138 147 256 280 263 297 11 27 10 30 -13 41 -13 6 -22 15 -19 19 6 11 -70
31 -89 23 -9 -3 -29 7 -49 26 -18 18 -27 29 -20 25 11 -6 11 -3 0 14 -7 12
-15 21 -19 21 -3 0 -6 21 -7 48 -2 33 11 89 42 186 25 77 43 144 40 148 -7 11
-13 10 -64 -13z"/>
<path d="M1003 769 c-83 -41 -126 -116 -126 -219 0 -141 95 -234 238 -234 145
0 237 94 237 241 1 101 -52 183 -139 220 -51 21 -160 17 -210 -8z m197 -31
c72 -26 129 -133 114 -215 -9 -56 -49 -118 -91 -145 -31 -18 -52 -23 -109 -23
-60 0 -77 4 -112 28 -23 15 -51 45 -62 66 -92 181 68 360 260 289z"/>
<path d="M1081 689 c-46 -10 -72 -38 -82 -90 -16 -82 10 -158 61 -179 70 -29
160 14 160 76 0 37 -38 33 -52 -6 -21 -61 -99 -49 -118 18 -20 78 9 142 65
142 35 0 51 -13 57 -45 2 -12 13 -21 26 -23 18 -3 22 1 22 26 0 60 -64 97
-139 81z"/>
<path d="M1470 772 c-39 -21 -70 -72 -70 -114 0 -26 3 -28 40 -28 37 0 39 2
46 35 7 38 17 49 53 58 26 6 72 -8 83 -26 4 -7 8 -28 8 -47 0 -29 -8 -42 -56
-85 -159 -141 -174 -159 -174 -203 l0 -42 160 0 160 0 0 35 0 35 -110 0 c-60
0 -110 4 -110 9 0 5 31 32 69 61 132 97 168 163 136 247 -23 60 -62 83 -140
83 -39 0 -73 -6 -95 -18z"/>
<path d="M1841 764 c-43 -36 -51 -54 -60 -137 -10 -87 2 -204 24 -247 23 -44
93 -74 153 -66 100 14 135 74 135 231 1 125 -13 174 -58 214 -32 28 -42 31
-100 31 -54 0 -68 -4 -94 -26z m123 -44 c37 -14 49 -67 44 -193 -4 -116 -18
-147 -65 -147 -64 0 -83 41 -83 175 0 104 13 153 44 165 28 12 31 12 60 0z"/>
<path d="M2233 775 c-40 -17 -73 -69 -73 -112 0 -32 2 -33 40 -33 35 0 40 3
40 23 0 53 55 86 109 65 31 -11 41 -25 41 -56 0 -41 -28 -79 -107 -142 -88
-70 -119 -109 -128 -162 l-7 -38 166 0 166 0 0 35 0 35 -110 0 c-64 0 -110 4
-110 10 0 5 34 34 75 65 100 73 135 122 135 187 0 60 -21 103 -60 123 -36 19
-134 19 -177 0z"/>
<path d="M2625 780 c-28 -11 -62 -49 -75 -85 -18 -47 -24 -184 -11 -244 15
-71 42 -106 96 -126 123 -47 239 44 220 172 -14 97 -111 150 -199 108 -20 -10
-38 -16 -41 -14 -2 2 1 27 6 54 9 53 36 85 71 85 23 0 68 -43 68 -65 0 -11 11
-15 40 -15 34 0 40 3 40 21 0 35 -29 84 -59 102 -31 18 -120 22 -156 7z m125
-250 c14 -14 20 -33 20 -65 0 -54 -25 -85 -70 -85 -69 0 -104 87 -59 144 26
33 79 36 109 6z"/>
<path d="M117 3 c68 -2 178 -2 246 0 67 1 12 3 -123 3 -135 0 -190 -2 -123 -3z"/>
<path d="M5932 3 c1418 -2 3738 -2 5155 0 1418 1 258 2 -2577 2 -2835 0 -3995
-1 -2578 -2z"/>
</g>
</svg>
