<?xml version="1.0" standalone="no"?>
<!DOCTYPE svg PUBLIC "-//W3C//DTD SVG 20010904//EN"
 "http://www.w3.org/TR/2001/REC-SVG-20010904/DTD/svg10.dtd">
<svg version="1.0" xmlns="http://www.w3.org/2000/svg"
 width="1348.000000pt" height="604.000000pt" viewBox="0 0 1348.000000 604.000000"
 preserveAspectRatio="xMidYMid meet">

<g transform="translate(0.000000,604.000000) scale(0.100000,-0.100000)"
fill="#000000" stroke="none">
<path d="M313 5865 c-15 -30 -23 -58 -19 -62 4 -4 12 0 17 10 14 25 59 23 59
-3 0 -11 5 -20 11 -20 11 0 6 80 -7 115 -12 29 -35 14 -61 -40z m47 5 c0 -11
-7 -20 -15 -20 -17 0 -18 2 -9 24 9 23 24 20 24 -4z"/>
<path d="M5274 5901 c-133 -60 -136 -242 -4 -308 43 -23 51 -23 400 -23 349 0
357 0 400 23 132 66 129 248 -4 308 -37 17 -72 19 -396 19 -324 0 -359 -2
-396 -19z m796 -22 c46 -26 80 -83 80 -134 0 -51 -34 -108 -80 -134 -36 -20
-50 -21 -400 -21 -350 0 -364 1 -400 21 -46 26 -80 83 -80 134 0 50 34 108 79
133 35 21 48 22 400 22 352 0 364 -1 401 -21z"/>
<path d="M5401 5753 c1 -32 4 -48 6 -37 3 14 16 25 36 31 25 7 32 14 32 33 0
22 -5 25 -37 28 l-38 3 1 -58z m67 25 c3 -14 -3 -18 -27 -18 -25 0 -31 4 -31
21 0 16 5 20 27 17 17 -2 29 -10 31 -20z"/>
<path d="M5838 5788 c-9 -25 14 -88 31 -87 10 0 11 2 4 6 -16 6 -17 63 -2 63
6 0 4 7 -5 15 -18 18 -23 19 -28 3z"/>
<path d="M5501 5735 c2 -33 3 -35 6 -10 2 17 11 35 20 42 13 10 13 12 -6 10
-18 -1 -21 -7 -20 -42z"/>
<path d="M5560 5766 c-6 -8 -10 -25 -8 -38 2 -18 9 -23 33 -23 24 0 31 5 33
23 4 25 -13 52 -33 52 -7 0 -18 -7 -25 -14z m45 -26 c0 -29 -32 -41 -41 -16
-9 24 4 48 23 44 12 -2 18 -12 18 -28z"/>
<path d="M5692 5771 c-8 -5 -12 -21 -10 -37 2 -24 8 -29 33 -31 28 -2 28 -1 5
5 -34 10 -36 57 -3 56 12 0 20 3 17 8 -7 10 -25 10 -42 -1z"/>
<path d="M5772 5768 c-27 -27 -2 -74 35 -65 15 4 14 5 -3 6 -12 0 -25 8 -28
17 -8 20 13 47 31 40 7 -3 13 -1 13 4 0 14 -34 12 -48 -2z"/>
<path d="M5900 5765 c-10 -12 -7 -17 14 -26 31 -15 33 -26 6 -32 -17 -4 -17
-4 2 -3 29 1 36 32 8 39 -11 3 -20 11 -20 17 0 7 8 10 20 7 11 -3 18 -1 14 4
-8 14 -30 11 -44 -6z"/>
<path d="M5640 5726 c0 -26 -5 -46 -12 -49 -8 -3 -6 -6 5 -6 14 -1 17 8 17 49
0 28 -2 50 -5 50 -3 0 -5 -20 -5 -44z"/>
<path d="M6434 5901 c-133 -60 -136 -242 -4 -308 43 -22 53 -23 335 -23 261 0
294 2 331 19 133 60 136 242 4 309 -43 21 -53 22 -335 22 -261 0 -294 -2 -331
-19z m666 -22 c46 -26 80 -83 80 -134 0 -51 -34 -108 -80 -134 -36 -20 -51
-21 -335 -21 -284 0 -299 1 -335 21 -46 26 -80 83 -80 134 0 50 34 108 79 133
34 21 49 22 335 22 286 0 300 -1 336 -21z"/>
<path d="M6572 5758 c-12 -28 -20 -54 -17 -56 2 -3 7 3 11 12 8 22 60 21 73
-1 6 -10 11 -12 11 -6 0 16 -42 103 -50 103 -3 0 -16 -23 -28 -52z m36 -16
c-27 -5 -32 2 -18 29 l13 22 13 -24 c11 -22 11 -24 -8 -27z"/>
<path d="M6671 5759 l-1 -56 33 1 c30 1 32 3 32 36 0 27 -4 35 -20 38 -18 2
-18 2 -2 -8 24 -15 23 -60 -2 -60 -19 0 -35 25 -26 39 2 4 0 21 -5 37 -7 25
-8 21 -9 -27z"/>
<path d="M6948 5787 c-9 -27 7 -82 25 -83 12 -1 13 -1 2 3 -16 5 -21 59 -6 65
5 2 3 8 -4 15 -10 9 -14 9 -17 0z"/>
<path d="M6770 5765 c-24 -29 8 -75 44 -62 21 8 22 63 0 71 -23 9 -30 8 -44
-9z m48 -23 c2 -13 -3 -25 -13 -28 -23 -9 -38 10 -30 36 9 27 39 22 43 -8z"/>
<path d="M6864 5740 c1 -31 4 -35 29 -36 25 -1 27 1 26 40 l-2 41 -6 -35 c-8
-48 -38 -54 -44 -8 l-4 33 1 -35z"/>
<path d="M7464 5901 c-133 -60 -136 -242 -4 -308 43 -23 51 -23 390 -23 339 0
347 0 390 23 132 66 129 248 -4 308 -37 17 -72 19 -386 19 -314 0 -349 -2
-386 -19z m776 -22 c46 -26 80 -83 80 -134 0 -51 -34 -108 -80 -134 -36 -20
-50 -21 -390 -21 -340 0 -354 1 -390 21 -46 26 -80 83 -80 134 0 50 34 108 79
133 35 21 48 22 390 22 342 0 355 -1 391 -21z"/>
<path d="M7593 5784 c-15 -24 -15 -29 -2 -53 16 -29 55 -40 73 -20 8 9 8 10
-2 5 -7 -5 -24 -5 -38 -2 -22 6 -25 11 -22 44 3 34 5 37 36 37 17 0 32 3 32 7
0 5 -13 8 -30 8 -21 0 -35 -8 -47 -26z"/>
<path d="M7868 5788 c-2 -7 -2 -29 2 -48 3 -25 11 -36 25 -38 18 -2 18 -2 3 8
-10 6 -18 22 -18 35 0 17 6 25 18 26 13 0 14 2 2 6 -8 3 -18 10 -21 15 -3 5
-8 4 -11 -4z"/>
<path d="M8082 5783 c-7 -7 -8 -13 -3 -13 5 0 11 -15 13 -32 2 -23 8 -33 21
-34 12 -1 13 -1 2 3 -16 5 -21 59 -6 65 5 2 4 8 -3 14 -8 8 -15 7 -24 -3z"/>
<path d="M7688 5755 c-8 -19 -8 -28 2 -40 30 -36 83 3 60 45 -15 28 -48 25
-62 -5z m50 -18 c3 -21 -1 -27 -16 -27 -24 0 -36 28 -21 47 17 20 33 11 37
-20z"/>
<path d="M7781 5736 l2 -41 6 35 c4 22 12 35 21 35 9 0 18 -13 22 -35 l6 -35
-1 40 c-2 36 -5 40 -29 41 -26 1 -28 -1 -27 -40z"/>
<path d="M7946 5774 c15 -4 21 -13 22 -36 0 -16 4 -33 7 -36 4 -4 5 11 3 33
-3 35 -6 40 -28 42 -19 1 -20 0 -4 -3z"/>
<path d="M8010 5760 c-15 -27 4 -60 33 -59 20 1 20 2 2 6 -40 10 -40 47 -1 63
21 9 21 9 -1 9 -13 1 -27 -8 -33 -19z"/>
<path d="M7922 5723 c2 -10 12 -19 23 -20 17 -2 17 -1 2 3 -11 4 -16 12 -13
20 3 8 1 14 -5 14 -6 0 -9 -8 -7 -17z"/>
<path d="M436 5892 c-3 -5 -8 -32 -12 -62 -5 -39 -4 -51 5 -46 6 4 11 16 11
27 0 29 20 23 31 -11 6 -16 15 -30 20 -30 12 0 11 17 -1 40 -7 14 -7 25 1 38
7 11 9 27 6 36 -7 16 -52 23 -61 8z m48 -11 c7 -10 -22 -37 -30 -28 -9 8 3 37
15 37 5 0 12 -4 15 -9z"/>
<path d="M534 5830 c12 -78 32 -81 63 -10 25 58 13 68 -16 13 l-20 -38 -7 33
c-10 51 -28 53 -20 2z"/>
<path d="M648 5865 c-12 -20 -20 -115 -10 -115 6 0 14 20 17 44 7 47 3 87 -7
71z"/>
<path d="M780 5821 c0 -22 -4 -42 -9 -46 -9 -5 -45 33 -54 58 -7 20 -24 -4
-31 -45 -8 -42 8 -53 18 -13 l6 25 30 -33 c22 -24 31 -29 40 -20 17 16 25 99
11 107 -7 5 -11 -6 -11 -33z"/>
<path d="M233 5734 c-17 -31 -25 -94 -13 -94 6 0 13 13 16 30 l6 30 30 -41
c16 -23 33 -37 38 -33 14 15 23 114 11 114 -6 0 -11 -10 -12 -22 0 -13 -4 -32
-8 -43 -7 -17 -11 -13 -33 29 -23 44 -26 48 -35 30z"/>
<path d="M364 5686 c-14 -30 -22 -61 -18 -67 5 -8 10 -7 16 5 12 21 58 22 58
1 0 -8 5 -15 10 -15 13 0 13 11 -1 65 -19 74 -35 77 -65 11z m46 -18 c0 -5 -7
-8 -15 -8 -15 0 -20 21 -8 33 7 7 23 -11 23 -25z"/>
<path d="M475 5711 c-10 -9 -5 -111 5 -111 6 0 10 11 10 24 0 18 7 26 23 29
l22 4 -22 8 c-32 10 -31 39 1 31 14 -3 27 -2 30 3 6 9 -61 21 -69 12z"/>
<path d="M563 5655 c-15 -30 -23 -58 -19 -62 4 -4 12 0 17 10 14 24 50 22 56
-3 3 -11 10 -20 15 -20 10 0 2 67 -13 108 -13 34 -27 27 -56 -33z m47 -6 c0
-5 -7 -9 -15 -9 -15 0 -20 12 -9 23 8 8 24 -1 24 -14z"/>
<path d="M677 5673 c-13 -46 -17 -93 -9 -93 6 0 13 7 16 17 6 14 11 12 36 -12
34 -33 55 -26 22 7 l-22 22 22 23 c17 18 19 25 8 38 -18 21 -67 20 -73 -2z
m53 -18 c0 -8 -9 -15 -20 -15 -20 0 -26 11 -13 23 12 13 33 7 33 -8z"/>
<path d="M795 5633 c-4 -21 -9 -46 -12 -55 -3 -12 1 -18 11 -18 9 0 16 8 16
18 0 9 3 34 6 55 4 24 3 37 -4 37 -6 0 -14 -17 -17 -37z"/>
<path d="M5831 3762 c-14 -27 8 -55 40 -50 19 2 24 9 24 33 0 25 -4 31 -27 33
-18 2 -30 -3 -37 -16z"/>
<path d="M5340 3555 l0 -205 30 0 30 0 0 95 0 95 65 0 65 0 0 -95 0 -95 35 0
35 0 0 205 0 205 -35 0 -35 0 0 -85 0 -85 -65 0 -65 0 0 85 0 85 -30 0 -30 0
0 -205z"/>
<path d="M6261 3678 c1 -46 4 -108 7 -138 6 -46 10 -55 27 -55 24 0 33 49 34
188 l1 87 -35 0 -35 0 1 -82z"/>
<path d="M7030 3735 c0 -21 5 -25 30 -25 l30 0 0 -155 0 -155 -30 0 c-25 0
-30 -4 -30 -25 0 -25 0 -25 95 -25 95 0 95 0 95 25 0 22 -4 25 -35 25 l-35 0
0 155 0 155 35 0 c31 0 35 3 35 25 0 25 0 25 -95 25 -95 0 -95 0 -95 -25z"/>
<path d="M7505 3673 c7 -92 14 -109 38 -100 14 5 27 75 27 150 0 36 -1 37 -36
37 l-36 0 7 -87z"/>
<path d="M5830 3538 c0 -79 5 -132 13 -148 18 -36 57 -52 103 -42 32 6 40 13
42 33 3 23 0 25 -33 21 -59 -7 -65 5 -65 139 l0 119 -30 0 -30 0 0 -122z"/>
<path d="M7810 3505 l0 -155 25 0 24 0 3 128 3 127 26 3 c22 3 27 -2 33 -29 3
-17 6 -76 6 -130 0 -99 0 -99 25 -99 l24 0 3 128 3 127 25 0 25 0 3 -127 3
-128 29 0 30 0 0 119 c0 117 -9 168 -33 183 -18 11 -71 10 -84 -3 -8 -8 -17
-8 -31 0 -27 14 -65 14 -80 -1 -9 -9 -12 -9 -12 0 0 7 -11 12 -25 12 l-25 0 0
-155z"/>
<path d="M6262 3418 c-19 -19 -14 -45 10 -62 19 -13 25 -14 43 -2 25 16 31 42
15 61 -15 18 -52 19 -68 3z"/>
<path d="M5145 2968 c-28 -25 -375 -773 -375 -809 0 -33 44 -69 85 -69 50 0
84 36 121 127 l29 73 210 0 210 0 34 -80 c18 -44 45 -89 58 -100 55 -43 143
-13 143 48 0 40 -344 782 -375 810 -19 16 -39 22 -70 22 -31 0 -51 -7 -70 -22z
m143 -360 c34 -81 62 -152 62 -158 0 -6 -49 -10 -135 -10 -85 0 -135 4 -135
10 0 6 23 65 51 133 28 67 57 137 65 156 8 20 18 31 23 25 4 -5 36 -75 69
-156z"/>
<path d="M6583 2964 c-20 -20 -24 -32 -20 -57 7 -44 334 -768 357 -791 11 -11
38 -21 67 -23 42 -4 54 -1 76 18 33 29 367 763 367 807 0 67 -105 100 -153 48
-12 -13 -78 -155 -147 -315 -69 -160 -127 -291 -130 -291 -3 0 -62 131 -130
291 -69 159 -135 301 -147 315 -32 35 -104 34 -140 -2z"/>
<path d="M7569 2964 l-24 -26 0 -400 0 -400 28 -24 c60 -51 148 -20 162 57 3
19 5 199 3 401 l-3 366 -24 26 c-35 37 -107 37 -142 0z"/>
<path d="M7941 2971 c-30 -30 -32 -77 -29 -469 l3 -364 28 -24 c34 -29 85 -32
118 -5 24 19 24 20 29 288 l5 268 214 -273 c117 -150 223 -279 234 -287 30
-21 80 -19 108 4 l24 19 0 412 0 412 -24 19 c-33 27 -102 26 -127 -2 -17 -19
-19 -43 -24 -282 l-5 -262 -217 276 c-119 152 -224 279 -233 283 -33 12 -85 6
-104 -13z"/>
<path d="M5803 2956 l-28 -24 -3 -354 c-2 -194 0 -373 3 -397 9 -59 42 -91 94
-91 28 0 48 7 68 24 l28 24 3 151 3 151 73 0 c57 0 79 -4 98 -19 13 -11 57
-80 97 -155 41 -75 82 -143 92 -152 11 -9 41 -19 68 -22 40 -3 52 -1 70 17 32
32 26 73 -26 169 -61 114 -80 140 -115 162 l-30 18 43 19 c49 22 104 79 125
129 17 40 18 153 3 208 -16 56 -91 127 -158 149 -44 14 -92 17 -267 17 -211 0
-213 0 -241 -24z m433 -142 c46 -22 68 -65 61 -121 -10 -87 -60 -113 -224
-113 l-103 0 0 125 0 125 116 0 c87 0 125 -4 150 -16z"/>
<path d="M6561 2251 c-13 -8 -13 -19 -2 -73 24 -119 24 -118 8 -118 -20 0
-142 -55 -177 -80 -15 -11 -32 -20 -37 -20 -6 0 -22 31 -37 69 -29 73 -46 89
-70 65 -17 -16 -16 -19 28 -118 l26 -59 -37 -36 c-21 -20 -52 -54 -69 -75
l-31 -39 -48 36 c-52 40 -79 46 -89 21 -6 -16 5 -28 77 -86 l28 -23 -20 -48
c-49 -113 -67 -291 -41 -392 44 -169 163 -311 322 -385 93 -43 171 -61 283
-64 l100 -4 6 -83 c3 -46 9 -96 13 -110 7 -24 5 -27 -28 -33 -64 -12 -177 -77
-245 -141 -101 -96 -185 -262 -206 -407 l-7 -48 31 0 c25 0 32 5 37 28 39 173
92 281 184 372 36 36 88 77 116 92 231 123 549 43 769 -194 98 -106 111 -122
166 -212 49 -81 54 -86 86 -86 l33 0 -26 52 c-15 29 -37 70 -50 90 -29 46 -30
55 -4 63 37 12 136 102 189 172 101 134 174 314 207 507 22 133 15 357 -15
470 -27 101 -82 213 -133 271 -35 40 -39 50 -34 79 13 69 -44 180 -109 210
-54 26 -99 21 -129 -15 -74 -88 28 -278 151 -279 37 0 45 -5 75 -42 45 -57 60
-83 86 -148 131 -333 34 -836 -208 -1080 -36 -36 -82 -74 -102 -85 l-38 -19
-87 87 c-110 109 -176 158 -278 207 -97 46 -180 69 -285 77 l-79 6 -10 49 c-6
27 -11 75 -11 107 l0 59 48 11 c76 19 222 96 286 150 113 96 193 216 231 346
27 90 25 241 -4 330 -39 120 -134 250 -220 301 -35 21 -37 28 -16 77 23 56 20
87 -9 87 -21 0 -27 -8 -42 -52 -9 -29 -17 -54 -18 -55 -1 -1 -32 9 -70 23 -67
24 -217 46 -266 39 -14 -2 -46 -6 -72 -8 -51 -5 -45 -14 -68 97 -10 46 -25 76
-39 76 -3 0 -12 -4 -20 -9z m371 -236 c94 -20 192 -71 260 -135 l58 -55 -26
-43 -26 -42 -38 30 c-91 72 -190 67 -256 -14 -29 -34 -32 -36 -63 -25 -74 26
-221 -18 -292 -87 -33 -32 -37 -34 -68 -23 -85 30 -186 -14 -223 -97 l-19 -44
-54 0 c-50 0 -55 2 -55 23 1 85 74 221 175 322 106 107 217 165 380 199 46 9
185 5 247 -9z m811 -175 c62 -54 78 -142 27 -148 -55 -6 -127 107 -101 157 16
29 34 27 74 -9z m-412 -159 c14 -35 23 -89 26 -146 26 -457 -511 -790 -943
-584 -77 36 -191 141 -228 208 -34 64 -66 172 -66 226 l0 41 50 2 c34 1 52 -2
54 -10 43 -143 66 -180 130 -209 135 -61 266 34 266 194 0 52 -6 76 -29 120
l-29 55 21 20 c49 44 109 66 187 66 l75 1 6 -72 c13 -136 90 -232 193 -241 69
-6 96 1 136 34 49 42 70 93 70 173 0 38 -4 81 -10 95 -8 21 -5 34 18 71 32 53
38 49 73 -44z m-226 50 c35 -20 71 -80 80 -133 17 -100 -35 -188 -113 -188
-84 0 -157 91 -149 185 10 109 19 128 72 151 34 15 66 11 110 -15z m-611 -193
c83 -69 89 -187 11 -258 -54 -51 -145 -25 -187 53 -25 46 -23 131 3 173 43 70
112 83 173 32z"/>
<path d="M6843 1322 c-6 -4 -15 -23 -22 -44 -14 -42 -29 -51 -56 -32 -31 23
-65 18 -65 -8 1 -27 36 -56 78 -64 45 -9 92 38 99 97 5 46 -9 67 -34 51z"/>
<path d="M7042 1608 c-19 -19 -14 -46 9 -53 30 -10 58 19 43 43 -14 22 -36 26
-52 10z"/>
<path d="M6357 1424 c-24 -24 13 -72 42 -55 20 13 9 56 -14 59 -12 2 -24 0
-28 -4z"/>
<path d="M11212 1949 c-38 -15 -26 -60 21 -82 51 -24 48 -53 -6 -51 -42 1 -50
-12 -13 -22 61 -15 98 34 54 70 -14 12 -33 26 -43 32 -13 7 -16 16 -12 28 6
15 14 17 40 12 30 -5 31 -5 13 9 -22 17 -23 17 -54 4z"/>
<path d="M12140 1875 c0 -79 8 -92 47 -82 16 4 15 6 -4 12 -21 7 -23 14 -23
76 0 39 -4 69 -10 69 -6 0 -10 -32 -10 -75z"/>
<path d="M11958 1917 c-11 -27 -10 -115 2 -138 6 -10 20 -19 30 -19 26 0 26
16 0 23 -16 4 -19 15 -22 78 -2 45 -6 67 -10 56z"/>
<path d="M10950 1853 l0 -56 -25 23 c-14 13 -25 19 -25 14 0 -6 14 -23 30 -39
l30 -29 30 29 c17 16 30 33 30 39 0 5 -11 -1 -25 -14 l-25 -23 0 56 c0 31 -4
57 -10 57 -5 0 -10 -26 -10 -57z"/>
<path d="M12407 1903 c-4 -3 -7 -39 -7 -80 l0 -73 33 0 c41 0 53 8 67 44 14
38 4 82 -23 101 -22 16 -59 20 -70 8z m58 -17 c41 -30 14 -139 -29 -123 -12 5
-16 21 -16 65 0 75 8 85 45 58z"/>
<path d="M11390 1880 c-25 -25 -26 -62 -2 -83 21 -19 67 -23 77 -7 4 7 -2 9
-19 4 -16 -4 -32 -1 -41 6 -34 28 -4 97 37 84 14 -4 18 -2 14 5 -11 17 -44 13
-66 -9z"/>
<path d="M11611 1891 c-8 -5 -20 -7 -28 -4 -10 4 -13 -9 -13 -56 0 -34 4 -61
10 -61 6 0 10 19 10 43 0 46 13 67 43 67 10 0 15 5 12 10 -8 12 -16 12 -34 1z"/>
<path d="M11756 1874 c-19 -18 -21 -75 -4 -92 7 -7 24 -12 38 -12 36 0 50 17
50 62 0 53 -49 78 -84 42z m53 -8 c7 -8 11 -30 9 -48 -2 -28 -7 -33 -28 -33
-21 0 -26 5 -28 33 -3 31 11 62 28 62 4 0 13 -6 19 -14z"/>
<path d="M12602 1858 c-33 -43 -14 -108 32 -108 48 0 75 70 40 104 -19 19 -58
21 -72 4z m56 -10 c26 -26 8 -88 -25 -88 -23 0 -38 46 -25 75 13 27 31 32 50
13z"/>
<path d="M12983 1863 c-21 -4 -23 -10 -23 -66 0 -70 17 -68 22 3 2 37 6 45 23
45 17 0 21 -8 23 -45 5 -67 22 -75 22 -9 0 53 -12 81 -34 78 -6 -1 -21 -4 -33
-6z"/>
<path d="M12763 1846 c3 -7 9 -34 12 -60 8 -52 22 -60 31 -18 12 54 17 57 27
15 5 -24 13 -43 18 -43 4 0 12 23 18 50 14 63 14 73 1 65 -5 -3 -10 -19 -10
-36 0 -16 -4 -29 -10 -29 -5 0 -10 10 -10 23 0 23 -16 55 -23 47 -2 -3 -9 -23
-14 -45 l-10 -40 -7 43 c-4 23 -12 42 -18 42 -6 0 -8 -6 -5 -14z"/>
</g>
</svg>
